<?xml version="1.0" encoding="UTF-8"?>
<svg width="16px" height="12px" viewBox="0 0 16 12" version="1.1" xmlns="http://www.w3.org/2000/svg" xmlns:xlink="http://www.w3.org/1999/xlink">
    <defs>
        <path d="M155.407143,27 C155.407143,27.5142857 155.064286,27.8571429 154.55,27.8571429 L142.892857,27.8571429 L146.578571,31.5428571 C146.921429,31.8857143 146.921429,32.4 146.578571,32.7428571 C146.407143,32.9142857 146.235714,33 145.978571,33 C145.721429,33 145.55,32.9142857 145.378571,32.7428571 L140.235714,27.6 C140.15,27.5142857 140.064286,27.4285714 140.064286,27.3428571 C139.978571,27.1714286 139.978571,26.9142857 140.064286,26.6571429 C140.15,26.5714286 140.15,26.4857143 140.235714,26.4 L145.378571,21.2571429 C145.721429,20.9142857 146.235714,20.9142857 146.578571,21.2571429 C146.921429,21.6 146.921429,22.1142857 146.578571,22.4571429 L142.892857,26.1428571 L154.55,26.1428571 C155.064286,26.1428571 155.407143,26.4857143 155.407143,27 Z" id="path-1"></path>
    </defs>
    <g id="Page-1" stroke="none" stroke-width="1" fill="none" fill-rule="evenodd">
        <g id="Configurator-3" transform="translate(-920.000000, -1690.000000)">
            <g id="Group" transform="translate(780.000000, 420.000000)">
                <g id="Group-2" transform="translate(0.000000, 1249.000000)">
                    <mask id="mask-2" fill="white">
                        <use xlink:href="#path-1"></use>
                    </mask>
                    <use id="Mask" fill="#FFFFFF" fill-rule="nonzero" transform="translate(147.703571, 27.000000) scale(-1, 1) translate(-147.703571, -27.000000) " xlink:href="#path-1"></use>
                </g>
            </g>
        </g>
    </g>
</svg>
