<?xml version="1.0" encoding="UTF-8"?>
<svg width="20px" height="20px" viewBox="0 0 20 20" version="1.1" xmlns="http://www.w3.org/2000/svg" xmlns:xlink="http://www.w3.org/1999/xlink">
    <g id="Page-1" stroke="none" stroke-width="1" fill="none" fill-rule="evenodd">
        <g id="Impressum-Copy" transform="translate(-720.000000, -341.000000)" fill="#0062B8" fill-rule="nonzero">
            <g id="BLOG" transform="translate(720.000000, 221.000000)">
                <g id="Message" transform="translate(0.000000, 120.000000)">
                    <path d="M14.1972579,0 C17.3979916,0.010872923 19.990286,2.91244609 20,6.4950495 L20,6.4950495 L20,8.11881188 L19.99354,8.22629234 C19.9466817,8.61290679 19.6506049,8.91089109 19.2923485,8.91089109 L19.2923485,8.91089109 L19.2835029,8.89108911 L19.1721336,8.88122186 C19.0257158,8.85510502 18.889286,8.77792941 18.7831177,8.65909448 C18.6504073,8.51055081 18.5758514,8.30908237 18.5758514,8.0990099 L18.5758514,8.0990099 L18.5758514,6.4950495 C18.5518871,3.79949621 16.6054921,1.62088282 14.1972579,1.59405941 L14.1972579,1.59405941 L5.80274215,1.59405941 C3.39450789,1.62088282 1.44811291,3.79949621 1.42414861,6.4950495 L1.42414861,6.4950495 L1.42414861,13.5049505 C1.44811291,16.2005038 3.39450789,18.3791172 5.80274215,18.4059406 L5.80274215,18.4059406 L14.1972579,18.4059406 C16.6054921,18.3791172 18.5518871,16.2005038 18.5758514,13.5049505 C18.6163388,13.0989803 18.922975,12.7919416 19.2879257,12.7919416 C19.6528764,12.7919416 19.9595126,13.0989803 20,13.5049505 C19.990286,17.0875539 17.3979916,19.9891271 14.1972579,20 L14.1972579,20 L5.80274215,20 C2.599996,19.9945477 0.00487110525,17.0898065 0,13.5049505 L0,13.5049505 L0,6.4950495 C0,2.90793271 2.59797615,0 5.80274215,0 L5.80274215,0 Z M4.29443312,6.38692655 C4.48070099,6.36682207 4.6671823,6.42289927 4.81203008,6.54257426 L4.81203008,6.54257426 L8.96948253,9.85742574 C9.48880627,10.2678976 10.2192875,10.2678976 10.7386112,9.85742574 L10.7386112,9.85742574 L14.8518355,6.54257426 L14.8606811,6.54257426 L14.9473987,6.48291804 C15.2462388,6.30808809 15.6344967,6.37260085 15.8602388,6.64950495 C15.9785304,6.79800076 16.0329385,6.98799536 16.0113373,7.17714498 C15.9897361,7.36629461 15.8939207,7.53887938 15.7452455,7.65643564 L15.7452455,7.65643564 L11.6320212,10.980198 C10.5861526,11.8280382 9.09540423,11.8280382 8.0495356,10.980198 L8.0495356,10.980198 L3.92746572,7.65643564 L3.8513546,7.58355583 C3.61891283,7.32594359 3.59998262,6.92999594 3.821318,6.64950495 C3.93770999,6.50163353 4.10816526,6.40703103 4.29443312,6.38692655 Z"></path>
                </g>
            </g>
        </g>
    </g>
</svg>
