<?xml version="1.0" encoding="UTF-8"?>
<svg width="22px" height="22px" viewBox="0 0 22 22" version="1.1" xmlns="http://www.w3.org/2000/svg" xmlns:xlink="http://www.w3.org/1999/xlink">
    <g id="Page-1" stroke="none" stroke-width="1" fill="none" fill-rule="evenodd" stroke-linecap="round" stroke-linejoin="round">
        <g id="Impressum-Copy" transform="translate(-719.000000, -283.000000)" stroke="#0062B8" stroke-width="1.5">
            <g id="BLOG" transform="translate(720.000000, 221.000000)">
                <g id="Calling" transform="translate(0.000000, 63.000000)">
                    <path d="M12.7396483,0 C16.5564895,0.432631579 19.5720105,3.50631579 20,7.40210526" id="Stroke-1"></path>
                    <path d="M12.7396483,3.72947368 C14.5660805,4.09157895 15.9933997,5.54947368 16.3491982,7.41368421" id="Stroke-3"></path>
                    <path d="M9.31420804,10.4972499 C13.42805,14.6951164 14.3613032,9.83865034 16.9806116,12.510328 C19.5058197,15.0871131 20.9582849,15.6033739 17.757769,18.8681301 C17.3570126,19.196865 14.8107703,23.1518517 5.86238909,14.0207014 C-3.08709916,4.88842136 0.785403301,2.28678345 1.10755831,1.87784166 C4.31471658,-1.39595194 4.81289443,0.0940873148 7.33810258,2.67087241 C9.95630393,5.34367975 5.20036609,6.29938347 9.31420804,10.4972499 Z" id="Stroke-5"></path>
                </g>
            </g>
        </g>
    </g>
</svg>
