<?xml version="1.0" standalone="no"?>
<!DOCTYPE svg PUBLIC "-//W3C//DTD SVG 20010904//EN"
 "http://www.w3.org/TR/2001/REC-SVG-20010904/DTD/svg10.dtd">
<svg version="1.0" xmlns="http://www.w3.org/2000/svg"
 width="1312.000000pt" height="1312.000000pt" viewBox="0 0 1312.000000 1312.000000"
 preserveAspectRatio="xMidYMid meet">
<metadata>
Created by potrace 1.14, written by Peter Selinger 2001-2017
</metadata>
<g transform="translate(0.000000,1312.000000) scale(0.100000,-0.100000)"
fill="#000000" stroke="none">
<path d="M3648 10555 c-2 -2 -34 -6 -73 -9 -111 -9 -168 -15 -195 -21 -14 -2
-44 -7 -68 -10 -23 -3 -89 -15 -145 -26 -56 -11 -115 -23 -132 -26 -16 -2 -35
-9 -41 -14 -6 -5 -14 -6 -17 -3 -3 4 -14 3 -24 -1 -22 -10 -17 -8 -73 -24 -58
-16 -171 -50 -190 -58 -8 -3 -22 -7 -30 -9 -14 -3 -170 -63 -215 -83 -11 -5
-45 -20 -75 -33 -144 -60 -519 -266 -528 -290 -2 -4 -8 -8 -13 -8 -6 0 -34
-18 -64 -40 -30 -22 -57 -40 -60 -40 -4 0 -12 -6 -19 -12 -7 -7 -25 -22 -40
-33 -238 -173 -516 -439 -697 -666 -28 -35 -55 -65 -60 -67 -5 -2 -9 -9 -9
-17 0 -7 -7 -18 -15 -25 -20 -16 -157 -213 -220 -315 -27 -44 -52 -82 -55 -85
-3 -3 -6 -12 -8 -20 -2 -8 -9 -22 -17 -30 -41 -48 -205 -397 -286 -610 -8 -19
-14 -37 -15 -40 -2 -10 -16 -45 -23 -60 -5 -9 -12 -31 -16 -50 -4 -19 -12 -41
-17 -47 -6 -7 -8 -13 -5 -13 4 0 -1 -19 -9 -42 -8 -24 -26 -88 -40 -143 -14
-55 -28 -107 -31 -115 -3 -8 -7 -22 -8 -30 -1 -8 -12 -62 -24 -120 -27 -132
-30 -150 -50 -290 -6 -41 -14 -102 -16 -135 -3 -33 -9 -96 -12 -140 -15 -160
-8 -535 12 -720 13 -114 48 -312 77 -435 11 -47 21 -89 22 -95 1 -5 11 -37 21
-70 10 -33 19 -62 20 -65 5 -26 30 -107 35 -115 4 -5 10 -23 14 -40 4 -16 16
-48 27 -72 10 -23 19 -46 19 -51 0 -5 12 -36 26 -68 83 -193 172 -369 240
-479 13 -22 29 -50 34 -62 5 -13 14 -23 20 -23 5 0 10 -9 10 -19 0 -11 4 -21
8 -23 5 -1 36 -43 69 -93 34 -49 68 -99 77 -110 80 -102 152 -192 161 -201 5
-6 33 -37 60 -69 99 -114 311 -321 439 -430 32 -28 69 -59 82 -71 13 -11 35
-29 50 -40 14 -10 31 -23 38 -29 6 -5 29 -23 51 -40 22 -16 48 -37 58 -46 9
-9 30 -22 45 -30 15 -8 33 -19 40 -26 7 -7 26 -20 42 -30 17 -9 30 -21 30 -25
0 -4 4 -8 10 -8 8 0 110 -61 145 -87 16 -12 62 -38 125 -70 30 -15 57 -30 60
-33 9 -9 142 -72 295 -140 142 -62 437 -156 615 -194 107 -23 120 -26 165 -32
22 -3 49 -7 61 -9 31 -7 83 -14 134 -20 152 -16 241 -20 455 -20 214 1 306 5
440 20 22 3 58 7 80 9 60 7 110 14 215 32 14 3 60 11 103 20 42 8 89 18 104
20 71 13 382 96 416 111 52 23 81 72 74 126 -6 47 -16 57 -182 184 -55 42
-105 82 -112 87 -34 30 -43 36 -53 36 -5 0 -10 3 -10 8 0 4 -42 39 -92 77 -51
39 -95 72 -98 75 -3 4 -61 50 -130 105 -69 54 -126 102 -128 107 -2 4 -8 8
-13 8 -8 0 -27 14 -63 45 -6 6 -58 48 -116 94 -58 47 -121 99 -141 115 -86 74
-162 131 -245 183 -69 44 -267 126 -278 115 -3 -3 -6 -1 -6 4 0 5 -10 10 -22
10 -22 2 -67 10 -98 19 -8 2 -31 7 -50 10 -19 3 -62 13 -95 21 -33 9 -67 17
-75 19 -38 7 -270 89 -329 116 -89 41 -195 93 -201 99 -3 3 -16 11 -30 18 -14
6 -34 18 -44 24 -77 50 -173 113 -181 120 -155 122 -180 143 -280 243 -106
106 -185 200 -258 305 -89 128 -95 139 -176 295 -102 197 -180 425 -221 640
-17 90 -18 96 -24 155 -3 30 -9 78 -12 105 -12 107 -5 438 12 519 2 11 6 39 8
61 12 123 96 437 146 550 10 22 28 63 41 90 12 28 23 52 24 55 3 12 40 85 45
90 5 5 30 48 53 93 14 26 108 170 117 177 3 3 18 23 35 45 16 22 34 45 40 51
5 7 26 31 45 55 59 74 230 242 325 319 158 128 400 275 545 330 114 43 259 86
327 95 21 3 45 8 53 11 62 21 454 21 565 0 31 -6 116 -18 150 -21 17 -1 30 -4
30 -5 0 -1 9 -3 20 -4 60 -9 110 -18 116 -22 4 -2 22 -6 40 -9 42 -6 215 -50
249 -63 14 -5 27 -9 30 -9 9 1 84 -24 117 -39 17 -8 36 -14 41 -14 11 0 103
-37 172 -68 19 -8 40 -16 46 -18 14 -2 293 -141 364 -181 30 -17 74 -41 98
-54 149 -82 568 -354 657 -427 20 -16 208 -157 230 -172 11 -8 37 -30 56 -47
19 -18 39 -33 46 -33 6 0 13 -4 15 -9 2 -4 53 -48 113 -97 61 -48 116 -94 123
-101 8 -7 64 -56 125 -107 62 -52 126 -107 142 -121 17 -15 57 -50 89 -78 33
-29 69 -61 82 -72 12 -11 53 -48 91 -82 38 -34 83 -74 100 -90 16 -15 65 -59
108 -98 43 -38 97 -88 120 -110 24 -22 78 -72 121 -111 98 -89 127 -116 184
-168 44 -40 171 -153 239 -212 18 -16 50 -44 70 -61 20 -18 45 -41 56 -50 39
-34 190 -158 240 -197 28 -22 55 -44 60 -50 51 -55 276 -165 369 -182 17 -3
47 -8 66 -13 19 -4 56 -7 83 -7 26 1 47 -3 47 -7 0 -5 4 -6 8 -3 5 3 39 7 78
11 293 24 554 207 684 480 45 94 80 214 83 285 1 27 6 50 10 50 5 0 6 4 3 9
-3 5 -8 47 -11 92 -9 128 -34 212 -101 338 -25 46 -51 90 -57 98 -34 42 -190
196 -242 239 -33 27 -65 53 -71 59 -6 5 -25 21 -43 35 -18 14 -42 33 -54 44
-12 10 -42 35 -67 55 -24 20 -51 43 -60 51 -9 9 -33 29 -55 45 -22 17 -47 37
-56 45 -10 8 -24 20 -31 25 -24 19 -293 239 -305 250 -6 5 -26 21 -44 35 -18
14 -37 30 -43 35 -6 6 -27 22 -47 37 -19 14 -46 35 -60 47 -72 61 -189 154
-244 195 -22 17 -42 33 -45 36 -3 3 -47 39 -99 80 -52 40 -102 79 -110 86 -9
8 -92 73 -186 145 -93 72 -171 136 -173 140 -2 5 -8 9 -13 9 -5 0 -44 28 -87
61 -42 34 -88 70 -102 80 -14 10 -41 31 -62 46 -20 16 -48 37 -63 47 -14 11
-35 27 -45 35 -57 47 -353 271 -378 286 -9 6 -19 13 -22 16 -3 3 -32 25 -65
50 -33 24 -69 52 -79 62 -11 9 -23 17 -27 17 -4 0 -14 6 -21 13 -7 7 -49 39
-93 72 -44 32 -86 65 -93 72 -8 7 -23 18 -34 24 -12 6 -64 44 -117 84 -152
114 -421 291 -421 277 0 -4 -4 -2 -8 4 -8 12 -84 55 -227 128 -55 28 -103 56
-107 61 -4 6 -8 6 -8 2 0 -4 -10 -2 -22 5 -13 7 -25 13 -28 13 -3 1 -27 12
-55 25 -70 32 -158 67 -240 96 -38 14 -79 29 -90 33 -39 15 -90 32 -112 37
-12 2 -35 9 -50 15 -16 6 -35 12 -43 14 -8 2 -62 15 -120 30 -109 28 -125 31
-175 41 -16 3 -49 9 -72 15 -24 5 -46 8 -50 7 -5 -1 -24 2 -43 5 -114 22 -94
19 -320 43 -53 6 -577 14 -582 9z"/>
<path d="M8967 10553 c-2 -2 -33 -5 -68 -8 -95 -6 -216 -21 -339 -40 -14 -3
-43 -7 -65 -10 -22 -4 -48 -8 -57 -11 -18 -5 -46 -11 -93 -20 -16 -2 -66 -14
-110 -25 -44 -11 -91 -22 -105 -25 -14 -2 -36 -9 -50 -14 -24 -8 -134 -41
-155 -46 -5 -1 -30 -7 -55 -14 -25 -7 -46 -12 -48 -11 -7 4 -59 -29 -76 -47
-24 -27 -24 -85 1 -110 10 -10 41 -34 68 -52 28 -19 81 -59 120 -89 38 -31 74
-59 80 -64 23 -17 135 -104 170 -132 21 -16 44 -34 53 -39 14 -8 40 -28 66
-51 24 -22 74 -61 100 -80 16 -11 42 -32 58 -47 16 -16 32 -28 36 -28 4 0 26
-17 48 -38 23 -20 59 -50 79 -67 21 -16 47 -38 59 -49 11 -10 37 -30 56 -45
19 -14 37 -28 40 -31 13 -13 92 -71 150 -110 36 -24 67 -46 70 -49 3 -3 15
-12 28 -18 12 -7 32 -19 45 -25 12 -7 24 -15 27 -18 32 -32 419 -210 490 -225
8 -2 42 -13 75 -24 32 -11 62 -18 66 -15 4 2 10 0 13 -5 4 -5 25 -13 49 -17
47 -9 46 -9 67 -16 8 -3 44 -14 80 -23 91 -24 233 -78 342 -130 110 -52 192
-97 196 -107 2 -5 8 -8 13 -8 11 0 72 -42 77 -52 2 -5 8 -8 13 -8 10 0 123
-86 183 -139 75 -67 203 -204 257 -276 33 -44 66 -88 74 -97 51 -62 171 -280
235 -427 30 -69 98 -257 105 -291 2 -8 12 -48 23 -87 12 -40 18 -73 15 -73 -3
0 -1 -6 5 -12 5 -7 12 -29 15 -48 3 -19 11 -62 17 -95 7 -33 13 -75 14 -92 0
-18 3 -33 6 -33 3 0 6 -12 7 -27 1 -16 5 -71 9 -123 12 -150 7 -401 -10 -485
-2 -11 -7 -40 -10 -65 -6 -42 -10 -66 -20 -115 -18 -87 -75 -275 -106 -350 -7
-16 -19 -46 -28 -65 -30 -71 -78 -167 -120 -240 -42 -71 -131 -209 -142 -220
-3 -3 -24 -30 -46 -60 -23 -30 -51 -66 -63 -80 -99 -113 -136 -153 -201 -216
-83 -80 -103 -99 -170 -153 -25 -20 -50 -41 -56 -46 -6 -6 -37 -28 -70 -50
-32 -22 -60 -43 -62 -47 -2 -5 -8 -8 -14 -8 -5 0 -23 -9 -38 -20 -48 -34 -211
-115 -290 -144 -41 -15 -82 -30 -90 -34 -8 -3 -22 -7 -30 -8 -8 -2 -40 -10
-70 -19 -30 -9 -71 -18 -90 -21 -19 -2 -42 -6 -50 -9 -56 -17 -427 -28 -436
-13 -3 4 -13 4 -23 -2 -10 -5 -21 -7 -24 -4 -2 3 -33 7 -68 10 -35 2 -79 6
-96 9 -18 3 -50 7 -70 10 -21 3 -49 8 -63 10 -14 3 -43 8 -65 11 -56 8 -226
48 -315 74 -41 12 -79 23 -85 24 -5 1 -23 7 -40 13 -16 6 -75 28 -130 48 -118
44 -285 116 -373 162 -35 18 -70 33 -77 33 -7 0 -15 4 -17 9 -1 4 -41 28 -88
53 -143 75 -301 169 -465 278 -137 91 -304 208 -329 232 -11 10 -23 18 -27 18
-3 0 -22 13 -40 30 -19 16 -38 30 -43 30 -5 0 -16 8 -25 18 -9 9 -43 37 -76
62 -65 49 -95 73 -133 108 -14 12 -28 22 -31 22 -3 0 -18 11 -33 25 -14 13
-53 46 -85 72 -32 26 -63 52 -69 57 -41 39 -84 76 -89 76 -3 0 -16 10 -28 23
-12 12 -51 47 -87 77 -36 30 -67 58 -70 61 -3 4 -25 23 -50 44 -25 21 -81 70
-125 110 -44 39 -107 96 -140 126 -33 29 -73 65 -90 80 -16 15 -41 37 -54 48
-38 33 -159 142 -205 186 -86 80 -232 215 -253 233 -13 10 -65 58 -118 107
-52 48 -107 97 -123 109 -15 11 -36 30 -47 41 -24 25 -216 182 -305 250 -36
28 -67 52 -70 55 -16 16 -132 89 -170 108 -153 73 -359 96 -527 57 -13 -3 -33
-7 -45 -10 -56 -12 -195 -75 -267 -122 -63 -41 -225 -198 -241 -234 -13 -30
-32 -62 -46 -80 -19 -24 -64 -161 -78 -237 -25 -134 -8 -362 35 -467 7 -16 13
-32 13 -35 1 -3 5 -11 9 -17 5 -7 5 -13 2 -13 -4 0 3 -13 14 -29 12 -16 21
-32 21 -36 0 -28 121 -164 200 -225 25 -19 56 -45 70 -57 14 -11 57 -46 95
-77 98 -79 145 -118 169 -138 12 -10 53 -43 91 -74 39 -31 88 -71 110 -89 44
-37 104 -85 161 -130 20 -16 49 -40 63 -52 14 -13 31 -26 36 -30 46 -36 292
-233 309 -248 6 -6 29 -24 51 -40 22 -17 42 -32 45 -36 5 -5 224 -180 295
-234 44 -34 188 -148 200 -157 15 -13 386 -296 414 -316 13 -9 29 -23 36 -29
8 -7 18 -13 23 -13 6 0 12 -3 14 -8 2 -4 32 -30 68 -57 36 -28 70 -54 76 -60
6 -5 22 -17 34 -25 21 -15 104 -78 165 -126 52 -41 235 -181 262 -201 58 -42
128 -98 131 -105 2 -5 10 -8 17 -8 7 0 15 -4 17 -8 2 -4 48 -40 103 -79 55
-39 108 -78 118 -87 9 -9 21 -16 25 -16 5 0 19 -9 32 -20 12 -11 46 -34 74
-52 28 -18 53 -35 56 -38 7 -7 41 -29 60 -37 8 -4 20 -11 25 -15 14 -12 75
-50 115 -72 19 -11 38 -24 41 -28 3 -5 12 -10 20 -12 8 -1 41 -18 74 -37 111
-65 462 -226 530 -243 6 -2 24 -8 40 -15 113 -46 473 -157 605 -187 11 -2 30
-6 43 -9 41 -10 172 -36 210 -41 21 -3 44 -7 50 -8 26 -6 103 -17 127 -20 14
-1 31 -6 38 -10 7 -4 12 -3 12 3 0 6 11 7 28 2 43 -12 122 -15 357 -15 228 0
355 5 355 14 0 3 12 5 28 6 27 0 106 10 152 18 14 3 41 7 60 10 19 3 46 8 60
11 14 3 39 8 55 10 23 4 285 70 350 88 30 9 153 50 170 57 11 5 38 14 60 21
22 6 45 15 50 19 6 3 33 15 60 25 51 18 191 81 255 114 92 48 197 106 220 121
14 9 42 25 63 35 20 9 37 21 37 26 0 5 5 9 10 9 13 0 204 130 208 142 2 4 10
8 18 8 8 0 14 5 14 10 0 6 5 10 10 10 6 0 18 8 28 17 10 10 38 34 62 53 129
102 350 313 430 410 19 23 49 57 65 75 32 33 68 78 129 160 20 28 43 57 49 65
36 45 87 121 87 129 0 5 4 11 8 13 10 4 112 169 160 258 20 36 38 67 42 70 5
4 18 29 25 50 1 3 27 57 57 120 77 159 99 210 142 325 21 55 42 109 46 120 10
24 60 174 66 195 2 8 19 71 39 140 19 69 37 134 40 145 2 11 6 29 9 40 14 63
55 255 60 285 3 19 7 44 10 55 2 11 7 42 10 68 4 27 9 56 11 65 1 10 6 44 10
77 4 33 9 71 11 85 41 289 53 882 19 1040 -3 14 -7 39 -10 55 -16 103 -42 207
-87 350 -18 55 -33 102 -33 105 -1 3 -6 16 -12 30 -6 14 -25 61 -43 105 -31
79 -153 332 -187 390 -10 16 -39 65 -65 108 -27 43 -48 83 -48 88 0 5 -7 12
-15 15 -8 4 -12 10 -9 15 3 5 1 9 -4 9 -4 0 -19 19 -32 42 -13 23 -29 49 -36
57 -7 9 -47 62 -88 119 -42 56 -87 115 -100 130 -209 242 -276 314 -441 466
-33 30 -67 61 -75 69 -13 12 -199 165 -225 185 -94 72 -177 132 -184 132 -5 0
-11 4 -13 8 -1 4 -32 27 -68 50 -36 23 -69 45 -75 49 -119 91 -658 357 -785
389 -12 3 -163 52 -220 72 -8 3 -22 6 -30 8 -8 2 -51 13 -95 24 -44 12 -89 23
-100 25 -11 2 -58 11 -104 20 -46 9 -98 18 -115 21 -32 4 -239 30 -266 33 -37
4 -560 8 -563 4z"/>
</g>
</svg>
