<?xml version="1.0" encoding="UTF-8"?>
<svg width="75px" height="75px" viewBox="0 0 75 75" version="1.1" xmlns="http://www.w3.org/2000/svg" xmlns:xlink="http://www.w3.org/1999/xlink">
    <defs>
        <linearGradient x1="83.8023636%" y1="5.36763071%" x2="13.8520778%" y2="94.4308663%" id="linearGradient-1">
            <stop stop-color="#0076CC" offset="0.0397795564%"></stop>
            <stop stop-color="#05B4E8" offset="100%"></stop>
        </linearGradient>
    </defs>
    <g id="Page-1" stroke="none" stroke-width="1" fill="none" fill-rule="evenodd">
        <g id="Our-Advantages" transform="translate(-165.000000, -1753.000000)">
            <g id="coin-svgrepo-com" transform="translate(165.000000, 1753.000000)">
                <path d="M64.0172449,10.9827551 C56.934949,3.90030612 47.517551,0 37.5,0 C27.482449,0 18.065051,3.90030612 10.9827551,10.9827551 C3.90045918,18.065051 0,27.482449 0,37.5 C0,47.517551 3.90045918,56.934949 10.9827551,64.0172449 C18.065051,71.0996939 27.482449,75 37.5,75 C47.517551,75 56.934949,71.0996939 64.0172449,64.0172449 C71.0995408,56.934949 75,47.517551 75,37.5 C75,27.482449 71.0995408,18.065051 64.0172449,10.9827551 Z M61.8526531,61.8526531 C55.3484694,68.3568367 46.699898,71.9387755 37.5,71.9387755 C28.300102,71.9387755 19.6515306,68.3568367 13.1473469,61.8526531 C6.64316327,55.3484694 3.06122449,46.6997449 3.06122449,37.5 C3.06122449,28.3002551 6.64316327,19.6515306 13.1473469,13.1473469 C19.6515306,6.64316327 28.300102,3.06122449 37.5,3.06122449 C46.699898,3.06122449 55.3484694,6.64316327 61.8526531,13.1473469 C68.3568367,19.6515306 71.9387755,28.3002551 71.9387755,37.5 C71.9387755,46.6997449 68.3568367,55.3484694 61.8526531,61.8526531 Z" id="Shape" fill="#000000" fill-rule="nonzero"></path>
                <path d="M37.6122449,7 C20.7326531,7 7,20.7326531 7,37.6122449 C7,54.4918367 20.7326531,68.2244898 37.6122449,68.2244898 C54.4918367,68.2244898 68.2244898,54.4918367 68.2244898,37.6122449 C68.2244898,20.7326531 54.4918367,7 37.6122449,7 Z M37.6122449,65.1632653 C22.4206122,65.1632653 10.0612245,52.8038776 10.0612245,37.6122449 C10.0612245,22.4206122 22.4206122,10.0612245 37.6122449,10.0612245 C52.8038776,10.0612245 65.1632653,22.4206122 65.1632653,37.6122449 C65.1632653,52.8038776 52.8038776,65.1632653 37.6122449,65.1632653 Z" id="Shape" fill="#000000" fill-rule="nonzero"></path>
                <path d="M39.9311429,46.4291511 C37.0978669,46.4291511 34.6009008,45.0131311 33.0110722,42.8575644 L41.6727605,42.8575644 L41.6727605,39.2859778 L31.4003816,39.2859778 C31.2852809,38.7090944 31.2244933,38.1108177 31.2244933,37.5003689 C31.2244933,36.88992 31.2852809,36.2912745 31.4003816,35.71476 L41.6727605,35.71476 L41.6727605,32.1431733 L33.0110722,32.1431733 C34.6026992,29.9879754 37.0996653,28.5715867 39.9311429,28.5715867 C42.3917803,28.5715867 44.7513449,29.6556405 46.4073564,31.5500605 L48.9985612,29.1643306 C46.6843175,26.5178229 43.3791286,25 39.9311429,25 C35.0814463,25 30.8953772,27.9268347 28.9343488,32.1428044 L26,32.1428044 L26,35.7143911 L27.8808176,35.7143911 C27.7988083,36.3001269 27.7416177,36.8928708 27.7416177,37.5 C27.7416177,38.1071292 27.799168,38.6998731 27.8808176,39.2856089 L26,39.2856089 L26,42.8571956 L28.9343488,42.8571956 C30.8950175,47.0731653 35.0814463,50 39.9311429,50 C43.3791286,50 46.6839578,48.4821771 49,45.8356694 L46.4087952,43.4499395 C44.7513449,45.3450972 42.3917803,46.4291511 39.9311429,46.4291511 Z" id="Path" fill="url(#linearGradient-1)"></path>
            </g>
        </g>
    </g>
</svg>
