<?xml version="1.0" encoding="UTF-8"?>
<svg width="75px" height="75px" viewBox="0 0 75 75" version="1.1" xmlns="http://www.w3.org/2000/svg" xmlns:xlink="http://www.w3.org/1999/xlink">
    <defs>
        <linearGradient x1="85.5462274%" y1="5.36763071%" x2="11.9872066%" y2="94.4308663%" id="linearGradient-1">
            <stop stop-color="#0076CC" offset="0.0397795564%"></stop>
            <stop stop-color="#05B4E8" offset="100%"></stop>
        </linearGradient>
    </defs>
    <g id="Page-1" stroke="none" stroke-width="1" fill="none" fill-rule="evenodd">
        <g id="Our-Advantages" transform="translate(-721.000000, -1416.000000)">
            <g id="Group-6" transform="translate(720.000000, 1416.000000)">
                <g id="insurance-svgrepo-com" transform="translate(1.000000, 0.000000)">
                    <path d="M37.4997501,0 C16.8229156,0 0,16.8216663 0,37.4997501 C0,37.6836508 0.00599676175,37.8675515 0.0119935235,38.0502029 L0.020488936,38.3320507 L2.43993244,38.3452935 C2.63457733,32.44448 7.40799968,27.8224759 13.3063146,27.8224759 C19.3085734,27.8224759 24.1934355,32.7058388 24.1934355,38.7095968 L26.612879,38.7095968 C26.612879,33.114868 30.8550883,28.4976113 36.2901533,27.8939373 L36.2901533,38.7095968 L38.7095968,38.7095968 L38.7095968,27.8939373 C44.1446619,28.4976113 48.3868711,33.114868 48.3868711,38.7095968 L50.8063146,38.7095968 C50.8063146,32.7060887 55.6909269,27.8224759 61.6934355,27.8224759 C67.5917505,27.8224759 72.3651728,32.4447298 72.561067,38.3452935 L74.9805105,38.3320507 L74.9890059,38.0502029 C74.9937534,37.8675515 75,37.6836508 75,37.4997501 C75,16.8216663 58.1765846,0 37.4997501,0 Z M13.3063146,25.4030324 C9.26724569,25.4030324 5.65994363,27.1750755 3.22625782,30.0022988 C6.44027225,15.299988 18.9022928,4.01857997 34.1840406,2.57910728 C31.9025226,4.95007696 28.6620225,9.14506167 26.6708477,15.3567074 C24.9917545,20.5921302 24.4330561,26.8522498 24.2551522,31.1694185 C21.8514502,27.6905471 17.8438643,25.4030324 13.3063146,25.4030324 Z M37.4997501,25.4030324 C33.0506526,25.4030324 29.1095309,27.6020949 26.692586,30.9662782 C26.8812341,26.7977792 27.4291882,20.9114578 28.974104,16.0958083 C31.3705599,8.62359326 35.7916725,4.24720651 37.4997501,2.76900474 C39.2078278,4.24720651 43.6291902,8.62384312 46.0253963,16.0958083 C47.5688128,20.9067104 48.1170168,26.7940312 48.3056649,30.9650289 C45.8887201,27.6010954 41.9475983,25.4030324 37.4997501,25.4030324 Z M61.6931857,25.4030324 C57.155636,25.4030324 53.1480501,27.6905471 50.7445979,31.1694185 C50.566694,26.8519999 50.0079957,20.5921302 48.3289024,15.3567074 C46.3374778,9.14506167 43.0967278,4.95107642 40.8154597,2.57910728 C56.0972075,4.01857997 68.5604773,15.299988 71.7732424,30.0022988 C69.3393068,27.1750755 65.7322546,25.4030324 61.6931857,25.4030324 Z" id="Shape" fill="#333333" fill-rule="nonzero"></path>
                    <path d="M36.2901533,66.5318228 C36.2901533,69.8667719 33.5768685,72.5800568 30.2419194,72.5800568 C26.9069702,72.5800568 24.1936854,69.8667719 24.1936854,66.5318228 L24.1936854,65.322226 L21.7742419,65.322226 L21.7742419,66.5318228 C21.7742419,71.200052 25.5726907,74.9995003 30.2419194,74.9995003 C34.911148,74.9995003 38.7095968,71.200052 38.7095968,66.5318228 L38.7095968,65.322226 L36.2901533,65.322226 L36.2901533,66.5318228 L36.2901533,66.5318228 Z" id="Path" fill="#333333" fill-rule="nonzero"></path>
                    <path d="M37.4997501,66.5318228 C29.4953225,66.5318228 22.9838387,60.0200892 22.9838387,52.0159114 C22.9838387,44.0117337 29.4955724,37.5 37.4997501,37.5 C45.5039279,37.5 52.0156615,44.0117337 52.0156615,52.0159114 C52.0156615,60.0200892 45.5041777,66.5318228 37.4997501,66.5318228 Z" id="Path" stroke="#272727" stroke-width="2" fill="#FFFFFF" fill-rule="nonzero"></path>
                    <path d="M37.6775241,58.0641454 C35.709337,58.0641454 33.9747736,57.1049133 32.87037,55.6447019 L38.8873708,55.6447019 L38.8873708,53.2252584 L31.7514742,53.2252584 C31.6715174,52.8344694 31.6292902,52.4291882 31.6292902,52.0156615 C31.6292902,51.6021348 31.6715174,51.1966038 31.7514742,50.8060647 L38.8873708,50.8060647 L38.8873708,48.3866212 L32.87037,48.3866212 C33.9760229,46.9266596 35.7105863,45.9671777 37.6775241,45.9671777 C39.3868511,45.9671777 41.025966,46.7015312 42.1763448,47.9848382 L43.9763728,46.3687109 C42.3687409,44.575929 40.0727307,43.5477342 37.6775241,43.5477342 C34.3085934,43.5477342 31.4006636,45.5304136 30.0383993,48.3863714 L28,48.3863714 L28,50.8058149 L29.3065445,50.8058149 C29.2495752,51.2026006 29.2098467,51.6041338 29.2098467,52.0154117 C29.2098467,52.4266896 29.2498251,52.8282228 29.3065445,53.2250085 L28,53.2250085 L28,55.644452 L30.0383993,55.644452 C31.4004138,58.5004098 34.3085934,60.4830891 37.6775241,60.4830891 C40.0727307,60.4830891 42.368491,59.4548944 43.9773722,57.6621125 L42.1773442,56.0459852 C41.025966,57.3297919 39.3868511,58.0641454 37.6775241,58.0641454 Z" id="Path" fill="url(#linearGradient-1)"></path>
                </g>
            </g>
        </g>
    </g>
</svg>
