<?xml version="1.0" encoding="UTF-8"?>
<svg width="88px" height="87px" viewBox="0 0 88 87" version="1.1" xmlns="http://www.w3.org/2000/svg" xmlns:xlink="http://www.w3.org/1999/xlink">
    <defs>
        <linearGradient x1="89.93663%" y1="5.36763071%" x2="7.29215241%" y2="94.4308663%" id="linearGradient-1">
            <stop stop-color="#0076CC" offset="0.0397795564%"></stop>
            <stop stop-color="#05B4E8" offset="100%"></stop>
        </linearGradient>
        <linearGradient x1="89.93663%" y1="5.36892481%" x2="7.29215241%" y2="94.429578%" id="linearGradient-2">
            <stop stop-color="#0076CC" offset="0.0397795564%"></stop>
            <stop stop-color="#05B4E8" offset="100%"></stop>
        </linearGradient>
        <linearGradient x1="89.9351462%" y1="5.36763071%" x2="7.2937391%" y2="94.4308663%" id="linearGradient-3">
            <stop stop-color="#0076CC" offset="0.0397795564%"></stop>
            <stop stop-color="#05B4E8" offset="100%"></stop>
        </linearGradient>
        <linearGradient x1="89.93663%" y1="5.36763071%" x2="7.29215241%" y2="94.4308663%" id="linearGradient-4">
            <stop stop-color="#0076CC" offset="0.0397795564%"></stop>
            <stop stop-color="#05B4E8" offset="100%"></stop>
        </linearGradient>
        <linearGradient x1="89.93663%" y1="5.36957202%" x2="7.29215241%" y2="94.4289337%" id="linearGradient-5">
            <stop stop-color="#0076CC" offset="0.0397795564%"></stop>
            <stop stop-color="#05B4E8" offset="100%"></stop>
        </linearGradient>
        <linearGradient x1="89.93663%" y1="5.36928891%" x2="7.29215241%" y2="94.4292156%" id="linearGradient-6">
            <stop stop-color="#0076CC" offset="0.0397795564%"></stop>
            <stop stop-color="#05B4E8" offset="100%"></stop>
        </linearGradient>
        <linearGradient x1="89.93663%" y1="25.4301954%" x2="7.29215241%" y2="74.4588786%" id="linearGradient-7">
            <stop stop-color="#0076CC" offset="0.0397795564%"></stop>
            <stop stop-color="#05B4E8" offset="100%"></stop>
        </linearGradient>
        <linearGradient x1="66.9858494%" y1="5.36763071%" x2="31.8354962%" y2="94.4308663%" id="linearGradient-8">
            <stop stop-color="#0076CC" offset="0.0397795564%"></stop>
            <stop stop-color="#05B4E8" offset="100%"></stop>
        </linearGradient>
    </defs>
    <g id="Page-1" stroke="none" stroke-width="1" fill="none" fill-rule="evenodd">
        <g id="Our-Advantages" transform="translate(-1076.000000, -2320.000000)">
            <g id="Group-20" transform="translate(0.000000, 2106.000000)">
                <g id="Group-18" transform="translate(237.000000, 82.000000)">
                    <g id="Group-35" transform="translate(47.000000, 133.000000)">
                        <g id="Group-19-Copy-4" transform="translate(779.500000, 0.000000)">
                            <g id="Asset-2" transform="translate(14.000000, 0.000000)">
                                <path d="M42.5012214,21.2415619 C47.1968441,24.008544 52.2576115,26.1061144 57.5358536,27.4725445 C58.8994151,32.7516644 60.9957441,37.8130474 63.7624552,42.5092392 C60.9984402,47.2004059 58.90291,52.2557602 57.5374636,57.5279337 C52.258041,58.8938127 47.1965656,60.991341 42.5000106,63.7581332 C37.8033462,60.9893598 32.7408022,58.8911426 27.4606569,57.5252783 C26.0947922,52.250407 23.9981243,47.1931092 21.2329137,42.4998658 C24.0001212,37.80683 26.0973157,32.7485329 27.462524,27.4728077 C32.7426836,26.107686 37.8046075,24.009803 42.5012214,21.2415619 Z" id="Path-Copy-2" stroke="#FFFFFF" stroke-width="40"></path>
                                <g id="world-svgrepo-com" transform="translate(17.000000, 17.000000)">
                                    <path d="M25.4989043,3.65088281 C13.4519473,3.65088281 3.65088281,13.4519473 3.65088281,25.4989043 C3.65088281,37.5458613 13.4519473,47.3469258 25.4989043,47.3469258 C37.5458613,47.3469258 47.3469258,37.5458613 47.3469258,25.4989043 C47.3469258,13.4519473 37.5458613,3.65088281 25.4989043,3.65088281 Z M44.6146406,19.1670352 L43.2713086,19.1670352 C42.8572324,19.1670352 42.4425586,19.2649512 42.0723105,19.4500254 L41.5797422,19.6963594 C41.2691602,19.8515508 40.8970195,19.8283418 40.6080527,19.6358965 L38.751334,18.3980508 C38.6107852,18.304418 38.4455332,18.2543145 38.2766953,18.2543145 L38.050084,18.2543145 L38.6837988,17.3036426 C38.7156738,17.2559297 38.7687656,17.227541 38.8261406,17.227541 L40.1590137,17.227541 L40.1590137,17.5994824 C40.1590137,18.0720293 40.5420117,18.455127 41.0146582,18.455127 C41.4360059,18.455127 41.7854355,18.1503223 41.856457,17.7493945 L42.1685332,17.9054824 C42.4759277,18.0591797 42.8198789,18.1403613 43.1634316,18.1403613 L44.2430977,18.1403613 C44.3762754,18.4780371 44.4995918,18.8206934 44.6146406,19.1670352 Z M38.2197188,11.2735898 C38.2197188,11.2586484 38.2257949,11.2439062 38.2363535,11.233248 L38.8817227,10.5878789 C38.9032383,10.5663633 38.9233594,10.5438516 38.9421855,10.520543 C39.3194063,10.8595137 39.6840762,11.2120312 40.0348008,11.5780957 L39.4970098,12.1158867 C39.1628203,12.4500762 39.1628203,12.9918516 39.4970098,13.3259414 C39.6640547,13.4929863 39.8830957,13.5765586 40.1020371,13.5765586 C40.3209785,13.5765586 40.5400195,13.4930859 40.7070645,13.3259414 L41.1670605,12.8659453 C42.0547793,13.9647363 42.8296406,15.1580566 43.4735156,16.428873 L43.163332,16.428873 C43.084043,16.428873 43.0046543,16.4100469 42.9336328,16.3746855 L41.6140078,15.7147734 C41.3540273,15.5847832 41.0629688,15.5161523 40.772209,15.5161523 L38.8259414,15.5161523 C38.1951152,15.5161523 37.6095117,15.8295234 37.259584,16.3543652 L35.9933496,18.2543145 L35.1962754,18.2543145 C34.8502324,18.2543145 34.5688359,17.9728184 34.5688359,17.626875 L34.5688359,16.1169961 C34.5688359,16.0924922 34.5844746,16.0706777 34.6078828,16.0629082 L36.2774355,15.5063906 C36.6936035,15.3676348 37.077498,15.1303652 37.3877813,14.8201816 C37.924377,14.2835859 38.2197188,13.5703828 38.2197188,12.8116582 L38.2197188,11.2735898 L38.2197188,11.2735898 Z M12.0554238,10.520543 C12.07425,10.543752 12.0941719,10.5661641 12.1158867,10.5877793 L13.0286074,11.5005 C13.1889785,11.6610703 13.4067246,11.7511172 13.6336348,11.7511172 C13.8605449,11.7511172 14.078291,11.6609707 14.2386621,11.5005 L15.5293008,10.2096621 C15.7123828,10.0265801 15.9560273,9.92567578 16.2151113,9.92567578 L17.3414941,9.92567578 L17.3414941,9.98275195 C17.3414941,10.2792891 17.4950918,10.554709 17.7473027,10.7105977 C17.9995137,10.8665859 18.3145781,10.8807305 18.5798379,10.7480508 L20.0732813,10.0011797 C20.1721934,9.95177344 20.2828594,9.92567578 20.3935254,9.92567578 L23.4460547,9.92567578 C23.1122637,10.1433223 22.8802734,10.4904609 22.8086543,10.9037402 C22.7079492,11.485459 22.950498,12.0503437 23.4417715,12.3778594 L24.6177598,13.1618848 C24.6335977,13.172543 24.6430605,13.1901738 24.6430605,13.2092988 L24.6430605,13.6336348 C24.6430605,13.6651113 24.6174609,13.6907109 24.5859844,13.6907109 L24.1930254,13.6907109 C23.6292363,13.6907109 23.0992148,13.91025 22.7004785,14.3088867 L16.9464434,20.0629219 C16.9357852,20.0735801 16.9211426,20.0795566 16.9061016,20.0795566 L15.4589766,20.0795566 C13.9805742,20.0795566 12.7778906,21.2822402 12.7778906,22.7606426 L12.7778906,23.1773086 L11.8293105,22.9875527 C11.6031973,22.9423301 11.4145371,22.7980957 11.3113418,22.5920039 L10.7479512,21.4654219 C10.6030195,21.175459 10.3067813,20.9922773 9.98265234,20.9922773 L9.47295117,20.9922773 C9.05489063,20.9922773 8.68514063,20.7257227 8.55305859,20.3291777 L7.36163086,16.7548945 C8.51092383,14.3807051 10.1135391,12.2654004 12.0554238,10.520543 Z M25.4989043,45.6355371 C14.3955469,45.6355371 5.36217188,36.6021621 5.36217188,25.4989043 C5.36217188,23.2996289 5.71777734,21.1821328 6.37241016,19.1994082 L6.92942578,20.8704551 C7.29290039,21.9610781 8.30582813,22.6956973 9.45372656,22.703666 L9.78054492,23.3574023 C10.1214082,24.0393281 10.7457598,24.5160586 11.4934277,24.6657715 L14.7565313,25.3183125 C14.9400117,25.3549687 15.1068574,25.4443184 15.2391387,25.5765996 C15.5045977,25.8421582 15.8165742,26.0445645 16.156541,26.176248 L15.5598809,27.9664277 C15.5307949,28.0536855 15.5159531,28.1449277 15.5159531,28.2370664 L15.5159531,30.0625078 C15.5159531,30.9018164 15.9168809,31.7037715 16.5883477,32.2073965 L18.7788574,33.8502539 C19.0217051,34.0323398 19.1667363,34.3224023 19.1667363,34.6259121 L19.1667363,39.5495039 C19.1667363,40.0807207 19.3224258,40.5950039 19.6170703,41.0367715 L20.9327109,43.010332 C21.2190879,43.439748 21.6980098,43.6961426 22.2141855,43.6961426 L22.5323379,43.6961426 C23.1298945,43.6961426 23.6161875,43.2098496 23.6161875,42.612293 L23.6161875,41.0475293 C23.6161875,40.666623 23.7645059,40.3084277 24.0338496,40.039084 L25.7228262,38.3501074 C26.0654824,38.0074512 26.3274551,37.5834141 26.4808535,37.1236172 L27.0152578,35.5205039 C27.0230273,35.4970957 27.0448418,35.481457 27.0693457,35.481457 L27.5243613,35.481457 C28.337373,35.481457 29.0429063,34.9306172 29.2399336,34.1419102 L29.8545234,31.6836504 C30.0042363,31.0845996 29.8260352,30.441123 29.389248,30.0045352 L28.1965254,28.8118125 C27.8626348,28.4779219 27.4184766,28.2938437 26.9461289,28.2938437 L25.8531152,28.2938437 L22.7202012,25.1609297 C22.3863105,24.8270391 21.9421523,24.6429609 21.4698047,24.6429609 L17.3041406,24.6429609 C17.290793,24.6426621 17.2775449,24.6426621 17.2641973,24.6429609 L17.1171738,24.6429609 C16.8649629,24.6429609 16.6275938,24.5447461 16.449293,24.3662461 C16.0773516,23.9942051 15.6079922,23.7430898 15.0921152,23.6399941 L14.4891797,23.5193672 L14.4891797,22.7607422 C14.4891797,22.2260391 14.9241738,21.7909453 15.4589766,21.7909453 L16.4287734,21.7909453 L16.4287734,21.8480215 C16.4287734,22.3205684 16.8118711,22.703666 17.284418,22.703666 C17.7569648,22.703666 18.1400625,22.3205684 18.1400625,21.8480215 L18.1400625,21.2881172 C18.1454414,21.2828379 18.1513184,21.2782559 18.1566973,21.2730762 L23.9107324,15.519041 C23.9861367,15.4436367 24.0864434,15.4020996 24.193125,15.4020996 L24.586084,15.4020996 C25.5611602,15.4020996 26.3544492,14.6088105 26.3544492,13.6337344 L26.3544492,13.2093984 C26.3544492,12.6167227 26.0600039,12.0666797 25.5670371,11.7380684 L24.8447695,11.256457 L26.2309336,10.9098164 C26.841041,10.7574141 27.2671699,10.2117539 27.2671699,9.58232227 C27.2671699,8.82808008 26.6534766,8.21438672 25.8992344,8.21438672 L20.3935254,8.21438672 C20.0185957,8.21438672 19.643168,8.30293945 19.3078828,8.47068164 L18.7425,8.75337305 C18.4810254,8.42516016 18.0780059,8.21438672 17.6266758,8.21438672 L16.2150117,8.21438672 C15.4989199,8.21438672 14.8255605,8.49319336 14.3191465,8.99970703 L13.6334355,9.68541797 L13.3776387,9.4297207 C16.7522051,6.87802734 20.9515371,5.36217187 25.4987051,5.36217187 C30.045873,5.36217187 34.2452051,6.87792773 37.6195723,9.42962109 L37.0260996,10.0230937 C36.6920098,10.3571836 36.5081309,10.8011426 36.5081309,11.2734902 L36.5081309,12.811459 C36.5081309,13.1130762 36.3905918,13.3966641 36.1774277,13.6099277 C36.0541113,13.7332441 35.9016094,13.8274746 35.7360586,13.8827578 L34.0665059,14.4392754 C33.3433418,14.6803301 32.857248,15.3544863 32.857248,16.1169961 L32.857248,17.6267754 C32.857248,18.0578848 32.9765801,18.4609043 33.1808789,18.808043 C32.8337402,19.0417266 32.529334,19.3425469 32.2897734,19.7021367 L31.4821406,20.9133867 C31.1874961,21.3552539 31.0318066,21.8695371 31.0318066,22.4006543 L31.0318066,24.0333516 C31.0318066,24.5644687 31.1874961,25.078752 31.4821406,25.5206191 L32.4591094,26.9859727 C32.9575547,27.7336406 33.7914844,28.1798906 34.6898613,28.1798906 L36.9607559,28.1798906 C37.378916,28.1798906 37.7485664,28.4462461 37.8806484,28.8429902 L38.0846484,29.4546914 C38.2497012,29.9499492 38.3334727,30.4658262 38.3334727,30.9880781 L38.3334727,31.6340449 C38.3334727,32.4873984 38.4523066,33.3362695 38.6868867,34.1571504 L40.1541328,39.2929102 C36.4796426,43.1949082 31.2692754,45.6355371 25.4989043,45.6355371 Z M19.8058301,32.481123 L17.6153203,30.8382656 C17.3724727,30.6560801 17.2274414,30.3660176 17.2274414,30.0625078 L17.2274414,28.3759219 L17.9012988,26.3546484 L21.4700039,26.3546484 C21.4850449,26.3546484 21.4997871,26.3607246 21.5103457,26.3712832 L24.893877,29.7548145 C25.054248,29.9153848 25.2719941,30.0054316 25.4989043,30.0054316 L26.9462285,30.0054316 C26.9612695,30.0054316 26.9760117,30.0115078 26.9865703,30.0220664 L28.179293,31.2147891 C28.1934375,31.2289336 28.1991152,31.249752 28.194334,31.2689766 L27.5797441,33.7271367 C27.5733691,33.7525371 27.5506582,33.7702676 27.5244609,33.7702676 L27.0694453,33.7702676 C26.3071348,33.7702676 25.6329785,34.2561621 25.3917246,34.9795254 L24.8573203,36.5826387 C24.7876934,36.7916191 24.6684609,36.9843633 24.5127715,37.1400527 L22.8237949,38.8290293 C22.2312188,39.4216055 21.9048984,40.2095156 21.9048984,41.0475293 L21.9048984,41.3835117 L21.0408867,40.0875937 C20.9343047,39.9278203 20.878125,39.74175 20.878125,39.5497031 L20.878125,34.6262109 C20.8782246,33.7865039 20.4773965,32.9845488 19.8058301,32.481123 Z M40.3327324,33.6870937 C40.1419805,33.0192129 40.0451602,32.3284219 40.0451602,31.6340449 L40.0451602,30.9880781 C40.0451602,30.2816484 39.9319043,29.5836855 39.7085801,28.9135137 L39.5045801,28.3018125 C39.1391133,27.2054121 38.1170215,26.4686016 36.9611543,26.4686016 L34.6902598,26.4686016 C34.365334,26.4686016 34.0637168,26.3071348 33.8834238,26.0367949 L32.9064551,24.5713418 C32.799873,24.4114687 32.7434941,24.225498 32.7434941,24.0334512 L32.7434941,22.4007539 C32.7434941,22.2086074 32.799873,22.0226367 32.9064551,21.8628633 L33.7140879,20.6515137 C34.0003652,20.2220977 34.4793867,19.9657031 34.9955625,19.9657031 L38.0178105,19.9657031 L39.658875,21.0597129 C40.4573438,21.5920254 41.4868066,21.6561738 42.3451406,21.226957 L42.837709,20.980623 C42.9716836,20.9136855 43.1215957,20.8783242 43.2714082,20.8783242 L45.0999375,20.8783242 C45.4497656,22.3626035 45.6357363,23.9094375 45.6357363,25.4989043 C45.6357363,30.094084 44.0875078,34.3337578 41.4870059,37.7261543 L40.3327324,33.6870937 Z" id="Shape" fill="url(#linearGradient-1)"></path>
                                    <path d="M8.7751875,7.55885742 C8.77209961,7.55557031 8.76891211,7.55238281 8.76572461,7.54919531 C8.43153516,7.21500586 7.88338477,7.21500586 7.54919531,7.54919531 C7.21500586,7.88338477 7.21500586,8.43153516 7.54919531,8.76572461 C7.5522832,8.76891211 7.55557031,8.77209961 7.55875781,8.7751875 C7.72460742,8.93595703 7.94095898,9.01624219 8.15741016,9.01624219 C8.37386133,9.01624219 8.59001367,8.93585742 8.7560625,8.7751875 C8.76253711,8.76891211 8.76891211,8.76253711 8.7751875,8.7560625 C9.09662695,8.42416406 9.09662695,7.89065625 8.7751875,7.55885742 Z" id="Path" fill="url(#linearGradient-2)"></path>
                                    <path d="M8.15731055,3.65088281 C5.67245508,3.65088281 3.6507832,5.67255469 3.6507832,8.15741016 C3.6507832,8.62995703 4.03388086,9.01305469 4.50642773,9.01305469 C4.97897461,9.01305469 5.36207227,8.62995703 5.36207227,8.15741016 C5.36207227,6.6161543 6.61605469,5.36227148 8.15721094,5.36227148 C8.62975781,5.36227148 9.01285547,4.97917383 9.01285547,4.50662695 C9.01285547,4.03408008 8.62995703,3.65088281 8.15731055,3.65088281 Z" id="Path" fill="url(#linearGradient-3)"></path>
                                    <path d="M8.15731055,0 C3.65944922,0 0,3.65944922 0,8.15731055 C0,8.62985742 0.383097656,9.01295508 0.855644531,9.01295508 C1.32819141,9.01295508 1.71128906,8.62985742 1.71128906,8.15731055 C1.71128906,4.60294922 4.60294922,1.71128906 8.15731055,1.71128906 C8.62985742,1.71128906 9.0129551,1.32819141 9.0129551,0.855644531 C9.01305469,0.383097656 8.62995703,0 8.15731055,0 Z" id="Path" fill="url(#linearGradient-4)"></path>
                                    <path d="M43.4510039,42.234375 C43.4478164,42.2311875 43.4446289,42.228 43.4413418,42.2249121 C43.109543,41.9034727 42.5759355,41.9034727 42.2442363,42.2249121 C42.2377617,42.2311875 42.2313867,42.2375625 42.2251113,42.2440371 C41.9035723,42.5758359 41.9035723,43.1094434 42.2251113,43.4411426 C42.2280996,43.4444297 42.2312871,43.4476172 42.2344746,43.4508047 C42.4015195,43.6178496 42.6221543,43.7014219 42.8427891,43.7014219 C43.0634238,43.7014219 43.283959,43.6179492 43.4511035,43.4508047 C43.7850937,43.1167148 43.7850937,42.5684648 43.4510039,42.234375 Z" id="Path" fill="url(#linearGradient-5)"></path>
                                    <path d="M46.4934727,41.9869453 C46.0209258,41.9869453 45.6378281,42.370043 45.6378281,42.8425898 C45.6378281,44.3838457 44.3838457,45.6377285 42.8426895,45.6377285 C42.3701426,45.6377285 41.9870449,46.0208262 41.9870449,46.493373 C41.9870449,46.9659199 42.3701426,47.3490176 42.8426895,47.3490176 C45.3275449,47.3490176 47.3492168,45.3273457 47.3492168,42.8424902 C47.3491172,42.3699434 46.9660195,41.9869453 46.4934727,41.9869453 Z" id="Path" fill="url(#linearGradient-6)"></path>
                                    <path d="M50.1443555,41.9869453 C49.6718086,41.9869453 49.2887109,42.370043 49.2887109,42.8425898 C49.2887109,46.3969512 46.3970508,49.2886113 42.8426895,49.2886113 C42.3701426,49.2886113 41.9870449,49.671709 41.9870449,50.1442559 C41.9870449,50.6168027 42.3701426,50.9999004 42.8426895,50.9999004 C47.3405508,51 51,47.3405508 51,42.8426895 C51,42.3699434 50.6169023,41.9869453 50.1443555,41.9869453 Z" id="Path" fill="url(#linearGradient-1)"></path>
                                    <path d="M21.7005996,11.4254941 C21.4893281,11.002752 20.9753437,10.8313242 20.5526016,11.0427949 L18.7271602,11.9555156 C18.304418,12.1667871 18.1330898,12.6807715 18.3444609,13.1035137 C18.494373,13.4033379 18.7964883,13.5766582 19.110457,13.5766582 C19.2390527,13.5766582 19.369541,13.5475723 19.492459,13.4862129 L21.3179004,12.5734922 C21.7406426,12.3622207 21.9119707,11.8482363 21.7005996,11.4254941 Z" id="Path" fill="url(#linearGradient-7)"></path>
                                    <path d="M34.6260117,10.0398281 C34.1534648,10.0398281 33.7703672,10.4229258 33.7703672,10.8954727 L33.7703672,11.8081934 C33.7703672,12.2807402 34.1533652,12.6638379 34.6260117,12.6638379 C35.0985586,12.6638379 35.4816562,12.2807402 35.4816562,11.8081934 L35.4816562,10.8954727 C35.4816562,10.4229258 35.0985586,10.0398281 34.6260117,10.0398281 Z" id="Path" fill="url(#linearGradient-8)"></path>
                                </g>
                                <path d="M85.000547,42.4999595 C84.9991567,39.8266989 84.1989692,37.2148014 82.7026195,34.999291 C79.4988089,30.4595585 77.3191893,25.2784993 76.3143915,19.8141703 C75.8688973,17.0264767 74.5492599,14.4522788 72.5457966,12.462826 L72.5457966,12.462826 C70.5543811,10.4618514 67.9801494,9.14291861 65.1924406,8.69526199 C59.7263209,7.68516357 54.5442158,5.50237773 50.0031647,2.29729511 C47.7870481,0.80135472 45.1744358,0.00138610884 42.5004437,0 L42.5004437,0 C39.8264516,0.00138610884 37.2138394,0.80135472 34.9977227,2.29729511 C30.4577411,5.50430343 25.275198,7.68727379 19.8084469,8.69526199 C14.0962089,9.62691452 9.61840344,14.103495 8.68649597,19.8141703 C7.67823195,25.279426 5.49466425,30.4605513 2.28677837,34.999291 C-0.761422195,39.5354559 -0.761422195,45.4644632 2.28677837,50.0006281 C5.49273802,54.5404369 7.67612115,59.7211243 8.68649597,65.1857487 C9.61840344,70.8964241 14.0962089,75.3730045 19.8084469,76.3046571 C25.275198,77.3126453 30.4577411,79.4956156 34.9977227,82.7026239 C37.2138394,84.1985643 39.8264516,84.9985329 42.5004437,84.9999191 L42.5004437,84.9999191 C45.1744358,84.9985329 47.7870481,84.1985643 50.0031647,82.7026239 C54.5442158,79.4975413 59.7263209,77.3147555 65.1924406,76.3046571 C67.9816479,75.8615823 70.5572265,74.5419594 72.5457966,72.5370931 L72.5457966,72.5370931 C74.5512115,70.549067 75.8711955,67.974193 76.3143915,65.1857487 C77.3247663,59.7211243 79.5081494,54.5404369 82.7141091,50.0006281 C84.2063953,47.7838214 85.0025514,45.1720238 85.000547,42.4999595 L85.000547,42.4999595 Z" id="Path" stroke="#039CDD" stroke-width="2"></path>
                            </g>
                        </g>
                    </g>
                </g>
            </g>
        </g>
    </g>
</svg>
