<?xml version="1.0" encoding="UTF-8"?>
<svg width="75px" height="75px" viewBox="0 0 75 75" version="1.1" xmlns="http://www.w3.org/2000/svg" xmlns:xlink="http://www.w3.org/1999/xlink">
    <defs>
        <linearGradient x1="89.93663%" y1="49.0749528%" x2="7.29215241%" y2="50.9208708%" id="linearGradient-1">
            <stop stop-color="#0076CC" offset="0.0397795564%"></stop>
            <stop stop-color="#05B4E8" offset="100%"></stop>
        </linearGradient>
    </defs>
    <g id="Page-1" stroke="none" stroke-width="1" fill="none" fill-rule="evenodd">
        <g id="Our-Advantages" transform="translate(-720.000000, -1753.000000)">
            <g id="contract-svgrepo-com" transform="translate(720.000000, 1753.000000)">
                <path d="M3.03766707,3.06122449 L54.6780073,3.06122449 L54.6780073,28.3163265 L57.7156744,28.3163265 L57.7156744,1.53061224 C57.7156744,0.685408163 57.0355407,0 56.1968408,0 L1.51883354,0 C0.680133657,0 0,0.685408163 0,1.53061224 L0,28.3163265 L3.03766707,28.3163265 L3.03766707,3.06122449 Z" id="Path" fill="#000000" fill-rule="nonzero"></path>
                <path d="M54.6780073,59.6938776 L44.0461725,59.6938776 C43.2074727,59.6938776 42.527339,60.3792857 42.527339,61.2244898 L42.527339,71.9387755 L3.03766707,71.9387755 L3.03766707,48.2135204 L0,48.2135204 L0,73.4693878 C0,74.3145918 0.680133657,75 1.51883354,75 L44.0461725,75 C44.441373,75 44.8297388,74.8444898 45.1201397,74.5516837 L57.270808,62.3067857 C57.561209,62.0139796 57.7118773,61.622602 57.7120292,61.2244898 L57.7156744,61.2244898 L57.7156744,48.2139796 L54.6780073,48.2139796 L54.6780073,59.6938776 Z M45.5650061,69.7740306 L45.5650061,62.755102 L52.529921,62.755102 L45.5650061,69.7740306 Z" id="Shape" fill="#000000" fill-rule="nonzero"></path>
                <path d="M73.4811665,32.9081633 L10.4495747,32.9081633 L10.4495747,32.9110714 C10.2360267,32.9110714 10.0215674,32.9536224 9.82108141,33.0453061 L1.46749696,36.8718367 C0.92527339,37.1202551 0.577156744,37.665 0.577156744,38.2653061 C0.577156744,38.8656122 0.92527339,39.4103571 1.46749696,39.6587755 L9.82108141,43.4853061 C10.0214156,43.5772959 10.235723,43.622449 10.4494228,43.622449 L10.4495747,43.622449 L73.4811665,43.622449 C74.3198663,43.622449 75,42.9370408 75,42.0918367 L75,34.4387755 C75,33.5935714 74.3198663,32.9081633 73.4811665,32.9081633 Z M8.93074119,39.7147959 L5.7664034,38.2653061 L8.93074119,36.8158163 L8.93074119,39.7147959 Z M63.6087485,40.5612245 L11.9684083,40.5612245 L11.9684083,35.9693878 L63.6087485,35.9693878 L63.6087485,40.5612245 Z M71.9623329,40.5612245 L66.6464156,40.5612245 L66.6464156,35.9693878 L71.9623329,35.9693878 L71.9623329,40.5612245 Z" id="Shape" fill="url(#linearGradient-1)"></path>
                <rect id="Rectangle" fill="#000000" fill-rule="nonzero" x="6.83475091" y="6.8877551" width="12.1506683" height="3.06122449"></rect>
                <rect id="Rectangle" fill="#000000" fill-rule="nonzero" x="6.83475091" y="13.0102041" width="16.7071689" height="3.06122449"></rect>
                <rect id="Rectangle" fill="#000000" fill-rule="nonzero" x="13.6695018" y="20.6632653" width="37.2114216" height="3.06122449"></rect>
                <rect id="Rectangle" fill="#000000" fill-rule="nonzero" x="6.83475091" y="26.7857143" width="44.0461725" height="3.06122449"></rect>
                <rect id="Rectangle" fill="#000000" fill-rule="nonzero" x="6.83475091" y="46.6836735" width="44.0461725" height="3.06122449"></rect>
                <rect id="Rectangle" fill="#000000" fill-rule="nonzero" x="6.83475091" y="58.9285714" width="24.3013366" height="3.06122449"></rect>
                <rect id="Rectangle" fill="#000000" fill-rule="nonzero" x="43.2867558" y="6.8877551" width="3.03766707" height="3.06122449"></rect>
                <rect id="Rectangle" fill="#000000" fill-rule="nonzero" x="47.8432564" y="6.8877551" width="3.03766707" height="3.06122449"></rect>
                <rect id="Rectangle" fill="#000000" fill-rule="nonzero" x="6.83475091" y="64.2857143" width="3.79708384" height="3.06122449"></rect>
                <rect id="Rectangle" fill="#000000" fill-rule="nonzero" x="12.9100851" y="64.2857143" width="3.79708384" height="3.06122449"></rect>
            </g>
        </g>
    </g>
</svg>
