<?xml version="1.0" encoding="UTF-8"?>
<svg width="87px" height="87px" viewBox="0 0 87 87" version="1.1" xmlns="http://www.w3.org/2000/svg" xmlns:xlink="http://www.w3.org/1999/xlink">
    <defs>
        <linearGradient x1="89.93663%" y1="33.4263101%" x2="7.29215241%" y2="66.4988642%" id="linearGradient-1">
            <stop stop-color="#0076CC" offset="0.0397795564%"></stop>
            <stop stop-color="#05B4E8" offset="100%"></stop>
        </linearGradient>
        <linearGradient x1="89.93663%" y1="5.36763071%" x2="7.29215241%" y2="94.4308663%" id="linearGradient-2">
            <stop stop-color="#0076CC" offset="0.0397795564%"></stop>
            <stop stop-color="#05B4E8" offset="100%"></stop>
        </linearGradient>
    </defs>
    <g id="Page-1" stroke="none" stroke-width="1" fill="none" fill-rule="evenodd">
        <g id="Our-Advantages" transform="translate(-677.000000, -2320.000000)">
            <g id="Group-20" transform="translate(0.000000, 2106.000000)">
                <g id="Group-18" transform="translate(237.000000, 82.000000)">
                    <g id="Group-35" transform="translate(47.000000, 133.000000)">
                        <g id="Group-19-Copy-5" transform="translate(393.000000, 0.000000)">
                            <g id="Asset-2" transform="translate(1.000000, 0.000000)">
                                <path d="M42.5012214,21.2415619 C47.1968441,24.008544 52.2576115,26.1061144 57.5358536,27.4725445 C58.8994151,32.7516644 60.9957441,37.8130474 63.7624552,42.5092392 C60.9984402,47.2004059 58.90291,52.2557602 57.5374636,57.5279337 C52.258041,58.8938127 47.1965656,60.991341 42.5000106,63.7581332 C37.8033462,60.9893598 32.7408022,58.8911426 27.4606569,57.5252783 C26.0947922,52.250407 23.9981243,47.1931092 21.2329137,42.4998658 C24.0001212,37.80683 26.0973157,32.7485329 27.462524,27.4728077 C32.7426836,26.107686 37.8046075,24.009803 42.5012214,21.2415619 Z" id="Path-Copy-2" stroke="#FFFFFF" stroke-width="40"></path>
                                <g id="graph-svgrepo-com" transform="translate(17.000000, 19.000000)">
                                    <path d="M48.609375,7.171875 C47.2911445,7.171875 46.21875,8.24436914 46.21875,9.5625 C46.21875,9.6624082 46.225623,9.76072266 46.2375762,9.85744336 L37.3984395,14.2770117 C36.6684023,13.3482539 35.5359434,12.75 34.265625,12.75 C32.0686406,12.75 30.28125,14.5373906 30.28125,16.734375 C30.28125,17.6071523 30.564041,18.4146855 31.0418672,19.0718086 L26.5063535,24.0197051 C26.4828457,24.0454043 26.4620273,24.072498 26.4425039,24.1001895 C26.1531387,23.9755781 25.8345879,23.90625 25.5,23.90625 C25.0465781,23.90625 24.6222422,24.0331523 24.2606602,24.2532891 L18.9833555,19.9354219 C19.0748965,19.6822148 19.125,19.4093848 19.125,19.125 C19.125,17.8068691 18.0526055,16.734375 16.734375,16.734375 C15.4161445,16.734375 14.34375,17.8068691 14.34375,19.125 C14.34375,19.7915859 14.6182734,20.3950195 15.0597422,20.8290176 L11.3871445,28.6988555 C11.3111426,28.691584 11.2341445,28.6875 11.15625,28.6875 C9.83801953,28.6875 8.765625,29.7599941 8.765625,31.078125 C8.765625,31.2073184 8.7762832,31.3340215 8.79610547,31.4578359 L3.9864668,34.081248 C3.56292773,33.7007402 3.00342187,33.46875 2.390625,33.46875 C1.07239453,33.46875 0,34.5412441 0,35.859375 C0,37.1775059 1.07239453,38.25 2.390625,38.25 C3.70885547,38.25 4.78125,37.1775059 4.78125,35.859375 C4.78125,35.7301816 4.7705918,35.6034785 4.75076953,35.4796641 L9.5604082,32.856252 C9.98394727,33.2367598 10.5433535,33.4686504 11.15625,33.4686504 C12.4744805,33.4686504 13.546875,32.3961562 13.546875,31.0780254 C13.546875,30.4114395 13.2723516,29.8080059 12.8308828,29.3740078 L16.5034805,21.5041699 C16.5794824,21.5114414 16.6564805,21.5155254 16.7344746,21.5155254 C17.1878965,21.5155254 17.6122324,21.388623 17.9738145,21.1684863 L23.2511191,25.4863535 C23.1594785,25.7396602 23.109375,26.0124902 23.109375,26.296875 C23.109375,27.6150059 24.1817695,28.6875 25.5,28.6875 C26.8182305,28.6875 27.890625,27.6150059 27.890625,26.296875 C27.890625,25.8886758 27.7875293,25.504084 27.6064395,25.1676035 C27.6324375,25.1456895 27.6576387,25.1225801 27.6812461,25.0968809 L32.2160625,20.1497813 C32.8152129,20.510666 33.5165625,20.71875 34.265625,20.71875 C36.4626094,20.71875 38.25,18.9313594 38.25,16.734375 C38.25,16.3771758 38.2019883,16.0310332 38.1134355,15.7014258 L46.9514766,11.2823555 C47.3815898,11.6972285 47.965998,11.953125 48.609375,11.953125 C49.9276055,11.953125 51,10.8806309 51,9.5625 C51,8.24436914 49.9276055,7.171875 48.609375,7.171875 Z M2.390625,36.65625 C1.95124805,36.65625 1.59375,36.298752 1.59375,35.859375 C1.59375,35.419998 1.95124805,35.0625 2.390625,35.0625 C2.83000195,35.0625 3.1875,35.419998 3.1875,35.859375 C3.1875,36.298752 2.83000195,36.65625 2.390625,36.65625 Z M11.15625,31.875 C10.716873,31.875 10.359375,31.517502 10.359375,31.078125 C10.359375,30.638748 10.716873,30.28125 11.15625,30.28125 C11.595627,30.28125 11.953125,30.638748 11.953125,31.078125 C11.953125,31.517502 11.595627,31.875 11.15625,31.875 Z M16.734375,19.921875 C16.294998,19.921875 15.9375,19.564377 15.9375,19.125 C15.9375,18.685623 16.294998,18.328125 16.734375,18.328125 C17.173752,18.328125 17.53125,18.685623 17.53125,19.125 C17.53125,19.564377 17.173752,19.921875 16.734375,19.921875 Z M25.5,27.09375 C25.060623,27.09375 24.703125,26.736252 24.703125,26.296875 C24.703125,25.857498 25.060623,25.5 25.5,25.5 C25.939377,25.5 26.296875,25.857498 26.296875,26.296875 C26.296875,26.736252 25.939377,27.09375 25.5,27.09375 Z M34.265625,19.125 C32.9474941,19.125 31.875,18.0525059 31.875,16.734375 C31.875,15.4162441 32.9474941,14.34375 34.265625,14.34375 C35.5837559,14.34375 36.65625,15.4162441 36.65625,16.734375 C36.65625,18.0525059 35.5837559,19.125 34.265625,19.125 Z M48.609375,10.359375 C48.169998,10.359375 47.8125,10.001877 47.8125,9.5625 C47.8125,9.12312305 48.169998,8.765625 48.609375,8.765625 C49.048752,8.765625 49.40625,9.12312305 49.40625,9.5625 C49.40625,10.001877 49.048752,10.359375 48.609375,10.359375 Z" id="Shape" fill="url(#linearGradient-1)"></path>
                                    <path d="M34.265625,15.9375 C34.0554492,15.9375 33.8502539,16.022168 33.7018359,16.1705859 C33.553418,16.3190039 33.46875,16.5241992 33.46875,16.734375 C33.46875,16.9444512 33.553418,17.1497461 33.7018359,17.2981641 C33.8502539,17.4464824 34.0554492,17.53125 34.265625,17.53125 C34.4758008,17.53125 34.6809961,17.4464824 34.8294141,17.2981641 C34.977832,17.1497461 35.0625,16.9444512 35.0625,16.734375 C35.0625,16.5241992 34.977832,16.3190039 34.8294141,16.1705859 C34.6809961,16.022168 34.4758008,15.9375 34.265625,15.9375 Z" id="Path" fill="url(#linearGradient-2)"></path>
                                    <path d="M34.265625,11.15625 C34.4748047,11.15625 34.6809961,11.0714824 34.8294141,10.9220684 C34.9768359,10.7747461 35.0625,10.5694512 35.0625,10.359375 C35.0625,10.1491992 34.9768359,9.94400391 34.8294141,9.79558594 C34.6809961,9.64716797 34.4748047,9.5625 34.265625,9.5625 C34.0554492,9.5625 33.8502539,9.64716797 33.7018359,9.79558594 C33.553418,9.94400391 33.46875,10.1491992 33.46875,10.359375 C33.46875,10.5685547 33.553418,10.7747461 33.7018359,10.9220684 C33.8502539,11.0714824 34.0554492,11.15625 34.265625,11.15625 Z" id="Path" fill="url(#linearGradient-2)"></path>
                                    <path d="M34.265625,7.96875 C34.4758008,7.96875 34.6809961,7.88398242 34.8294141,7.73566406 C34.977832,7.58724609 35.0625,7.38105469 35.0625,7.171875 C35.0625,6.9625957 34.977832,6.75650391 34.8294141,6.60808594 C34.6809961,6.45966797 34.4758008,6.375 34.265625,6.375 C34.0554492,6.375 33.8502539,6.45966797 33.7018359,6.60808594 C33.553418,6.75650391 33.46875,6.96169922 33.46875,7.171875 C33.46875,7.38195117 33.553418,7.58724609 33.7018359,7.73566406 C33.8502539,7.88398242 34.0554492,7.96875 34.265625,7.96875 Z" id="Path" fill="url(#linearGradient-2)"></path>
                                    <path d="M34.265625,4.78125 C34.4748047,4.78125 34.68,4.69648242 34.8294141,4.54816406 C34.977832,4.39875 35.0625,4.19355469 35.0625,3.984375 C35.0625,3.7750957 34.977832,3.56900391 34.8294141,3.42058594 C34.6809961,3.27216797 34.4748047,3.1875 34.265625,3.1875 C34.0564453,3.1875 33.8502539,3.27216797 33.7018359,3.42058594 C33.553418,3.56900391 33.46875,3.77519531 33.46875,3.984375 C33.46875,4.19355469 33.553418,4.39974609 33.7018359,4.54816406 C33.8502539,4.69648242 34.0564453,4.78125 34.265625,4.78125 Z" id="Path" fill="url(#linearGradient-2)"></path>
                                    <path d="M34.265625,1.59375 C34.4748047,1.59375 34.6809961,1.50898242 34.8294141,1.36066406 C34.977832,1.21224609 35.0625,1.00695117 35.0625,0.796875 C35.0625,0.587595703 34.977832,0.381503906 34.8294141,0.233085937 C34.6809961,0.0846679688 34.4758008,0 34.265625,0 C34.0554492,0 33.8502539,0.0846679688 33.7018359,0.233085937 C33.553418,0.381503906 33.46875,0.587695312 33.46875,0.796875 C33.46875,1.00695117 33.553418,1.21224609 33.7018359,1.36066406 C33.8502539,1.50898242 34.0564453,1.59375 34.265625,1.59375 Z" id="Path" fill="url(#linearGradient-2)"></path>
                                    <path d="M34.265625,31.875 C34.0554492,31.875 33.8502539,31.959668 33.7018359,32.1080859 C33.553418,32.2565039 33.46875,32.4616992 33.46875,32.671875 C33.46875,32.8819512 33.553418,33.0872461 33.7018359,33.2356641 C33.8502539,33.3839824 34.0554492,33.46875 34.265625,33.46875 C34.4748047,33.46875 34.6809961,33.3839824 34.8294141,33.2356641 C34.977832,33.0872461 35.0625,32.8819512 35.0625,32.671875 C35.0625,32.4616992 34.977832,32.2565039 34.8294141,32.1080859 C34.6809961,31.959668 34.4758008,31.875 34.265625,31.875 Z" id="Path" fill="url(#linearGradient-2)"></path>
                                    <path d="M34.265625,28.6875 C34.0554492,28.6875 33.8502539,28.772168 33.7018359,28.9205859 C33.553418,29.0690039 33.46875,29.2751953 33.46875,29.484375 C33.46875,29.6935547 33.553418,29.8997461 33.7018359,30.0481641 C33.8502539,30.1964824 34.0564453,30.28125 34.265625,30.28125 C34.4748047,30.28125 34.6809961,30.1964824 34.8294141,30.0481641 C34.977832,29.8997461 35.0625,29.6934551 35.0625,29.484375 C35.0625,29.2750957 34.977832,29.0690039 34.8294141,28.9205859 C34.6809961,28.772168 34.4758008,28.6875 34.265625,28.6875 Z" id="Path" fill="url(#linearGradient-2)"></path>
                                    <path d="M34.265625,25.5 C34.0554492,25.5 33.8502539,25.584668 33.7018359,25.7330859 C33.553418,25.8815039 33.46875,26.0866992 33.46875,26.296875 C33.46875,26.5069512 33.553418,26.7122461 33.7018359,26.8595684 C33.8502539,27.0089824 34.0554492,27.09375 34.265625,27.09375 C34.4758008,27.09375 34.6809961,27.0089824 34.8294141,26.8595684 C34.977832,26.7122461 35.0625,26.5069512 35.0625,26.296875 C35.0625,26.0866992 34.977832,25.8815039 34.8294141,25.7330859 C34.6809961,25.584668 34.4758008,25.5 34.265625,25.5 Z" id="Path" fill="url(#linearGradient-2)"></path>
                                    <path d="M34.265625,22.3125 C34.0554492,22.3125 33.8502539,22.397168 33.7018359,22.5455859 C33.553418,22.6940039 33.46875,22.8991992 33.46875,23.109375 C33.46875,23.3194512 33.553418,23.5247461 33.7018359,23.6720684 C33.8502539,23.8214824 34.0554492,23.90625 34.265625,23.90625 C34.4748047,23.90625 34.6809961,23.8214824 34.8294141,23.6720684 C34.977832,23.5247461 35.0625,23.3194512 35.0625,23.109375 C35.0625,22.8991992 34.977832,22.6940039 34.8294141,22.5455859 C34.6809961,22.397168 34.4748047,22.3125 34.265625,22.3125 Z" id="Path" fill="url(#linearGradient-2)"></path>
                                    <path d="M34.265625,44.625 C34.0554492,44.625 33.8502539,44.709668 33.7018359,44.8580859 C33.553418,45.0065039 33.46875,45.2116992 33.46875,45.421875 C33.46875,45.6319512 33.553418,45.8372461 33.7018359,45.9856641 C33.8502539,46.1339824 34.0554492,46.21875 34.265625,46.21875 C34.4758008,46.21875 34.6809961,46.1339824 34.8294141,45.9856641 C34.977832,45.8372461 35.0625,45.6319512 35.0625,45.421875 C35.0625,45.2116992 34.977832,45.0065039 34.8294141,44.8580859 C34.6809961,44.709668 34.4758008,44.625 34.265625,44.625 Z" id="Path" fill="url(#linearGradient-2)"></path>
                                    <path d="M34.265625,41.4375 C34.0554492,41.4375 33.8502539,41.522168 33.7018359,41.6705859 C33.553418,41.8190039 33.46875,42.0241992 33.46875,42.234375 C33.46875,42.4444512 33.553418,42.6497461 33.7018359,42.7981641 C33.8502539,42.9464824 34.0554492,43.03125 34.265625,43.03125 C34.4758008,43.03125 34.6809961,42.9464824 34.8294141,42.7981641 C34.977832,42.6497461 35.0625,42.4444512 35.0625,42.234375 C35.0625,42.0250957 34.977832,41.8190039 34.8294141,41.6705859 C34.6809961,41.522168 34.4758008,41.4375 34.265625,41.4375 Z" id="Path" fill="url(#linearGradient-2)"></path>
                                    <path d="M34.265625,38.25 C34.0554492,38.25 33.8502539,38.3355645 33.7018359,38.4830859 C33.553418,38.6315039 33.46875,38.8366992 33.46875,39.046875 C33.46875,39.2560547 33.553418,39.4622461 33.7018359,39.6106641 C33.8502539,39.7589824 34.0554492,39.84375 34.265625,39.84375 C34.4758008,39.84375 34.6809961,39.7589824 34.8294141,39.6106641 C34.977832,39.4622461 35.0625,39.2559551 35.0625,39.046875 C35.0625,38.8366992 34.977832,38.6315039 34.8294141,38.4830859 C34.6809961,38.3355645 34.4758008,38.25 34.265625,38.25 Z" id="Path" fill="url(#linearGradient-2)"></path>
                                    <path d="M34.265625,35.0625 C34.0554492,35.0625 33.8502539,35.147168 33.7018359,35.2955859 C33.5544141,35.4440039 33.46875,35.6491992 33.46875,35.859375 C33.46875,36.0694512 33.5544141,36.2747461 33.7018359,36.4220684 C33.8502539,36.5714824 34.0564453,36.65625 34.265625,36.65625 C34.4748047,36.65625 34.6809961,36.5714824 34.8294141,36.4220684 C34.9768359,36.2747461 35.0625,36.0694512 35.0625,35.859375 C35.0625,35.6491992 34.9768359,35.4440039 34.8294141,35.2955859 C34.6809961,35.147168 34.4758008,35.0625 34.265625,35.0625 Z" id="Path" fill="url(#linearGradient-2)"></path>
                                </g>
                                <path d="M85.000547,42.4999595 C84.9991567,39.8266989 84.1989692,37.2148014 82.7026195,34.999291 C79.4988089,30.4595585 77.3191893,25.2784993 76.3143915,19.8141703 C75.8688973,17.0264767 74.5492599,14.4522788 72.5457966,12.462826 L72.5457966,12.462826 C70.5543811,10.4618514 67.9801494,9.14291861 65.1924406,8.69526199 C59.7263209,7.68516357 54.5442158,5.50237773 50.0031647,2.29729511 C47.7870481,0.80135472 45.1744358,0.00138610884 42.5004437,0 L42.5004437,0 C39.8264516,0.00138610884 37.2138394,0.80135472 34.9977227,2.29729511 C30.4577411,5.50430343 25.275198,7.68727379 19.8084469,8.69526199 C14.0962089,9.62691452 9.61840344,14.103495 8.68649597,19.8141703 C7.67823195,25.279426 5.49466425,30.4605513 2.28677837,34.999291 C-0.761422195,39.5354559 -0.761422195,45.4644632 2.28677837,50.0006281 C5.49273802,54.5404369 7.67612115,59.7211243 8.68649597,65.1857487 C9.61840344,70.8964241 14.0962089,75.3730045 19.8084469,76.3046571 C25.275198,77.3126453 30.4577411,79.4956156 34.9977227,82.7026239 C37.2138394,84.1985643 39.8264516,84.9985329 42.5004437,84.9999191 L42.5004437,84.9999191 C45.1744358,84.9985329 47.7870481,84.1985643 50.0031647,82.7026239 C54.5442158,79.4975413 59.7263209,77.3147555 65.1924406,76.3046571 C67.9816479,75.8615823 70.5572265,74.5419594 72.5457966,72.5370931 L72.5457966,72.5370931 C74.5512115,70.549067 75.8711955,67.974193 76.3143915,65.1857487 C77.3247663,59.7211243 79.5081494,54.5404369 82.7141091,50.0006281 C84.2063953,47.7838214 85.0025514,45.1720238 85.000547,42.4999595 L85.000547,42.4999595 Z" id="Path" stroke="#039CDD" stroke-width="2"></path>
                            </g>
                        </g>
                    </g>
                </g>
            </g>
        </g>
    </g>
</svg>
