<?xml version="1.0" encoding="UTF-8"?>
<svg width="75px" height="75px" viewBox="0 0 75 75" version="1.1" xmlns="http://www.w3.org/2000/svg" xmlns:xlink="http://www.w3.org/1999/xlink">
    <defs>
        <linearGradient x1="89.93663%" y1="5.36763071%" x2="7.29215241%" y2="94.4308663%" id="linearGradient-1">
            <stop stop-color="#0076CC" offset="0.0397795564%"></stop>
            <stop stop-color="#05B4E8" offset="100%"></stop>
        </linearGradient>
        <linearGradient x1="89.93663%" y1="49.8622458%" x2="7.29215241%" y2="50.1371323%" id="linearGradient-2">
            <stop stop-color="#0076CC" offset="0.0397795564%"></stop>
            <stop stop-color="#05B4E8" offset="100%"></stop>
        </linearGradient>
    </defs>
    <g id="Page-1" stroke="none" stroke-width="1" fill="none" fill-rule="evenodd">
        <g id="Our-Advantages" transform="translate(-165.000000, -1416.000000)">
            <g id="development-svgrepo-com" transform="translate(165.000000, 1416.000000)">
                <path d="M71.9387755,0 L3.06122449,0 C1.37326531,0 0,1.37326531 0,3.06122449 L0,71.9387755 C0,73.6267347 1.37326531,75 3.06122449,75 L71.9387755,75 C73.6267347,75 75,73.6267347 75,71.9387755 L75,3.06122449 C75,1.37326531 73.6267347,0 71.9387755,0 Z M71.9387755,71.9387755 L3.06122449,71.9387755 L3.06122449,13.7755102 L71.9387755,13.7755102 L71.9387755,71.9387755 Z M71.9387755,10.7142857 L3.06122449,10.7142857 L3.06122449,3.06122449 L71.9387755,3.06122449 L71.9387755,10.7142857 Z" id="Shape" fill="#000000" fill-rule="nonzero"></path>
                <rect id="Rectangle" fill="#000000" fill-rule="nonzero" x="6.12244898" y="5.35714286" width="5.35714286" height="3.06122449"></rect>
                <rect id="Rectangle" fill="#000000" fill-rule="nonzero" x="13.7755102" y="5.35714286" width="5.35714286" height="3.06122449"></rect>
                <rect id="Rectangle" fill="#000000" fill-rule="nonzero" x="63.5204082" y="5.35714286" width="5.35714286" height="3.06122449"></rect>
                <path d="M18.3673469,45.9185204 L20.9987755,45.9185204 C21.1522959,46.3368367 21.3185204,46.7422959 21.4968367,47.1338265 L19.6421939,48.9993367 C19.0643878,49.5771429 18.7461735,50.3447449 18.7461735,51.1608673 C18.7461735,51.9769898 19.0645408,52.7445918 19.6421939,53.3222449 L23.9736735,57.6537245 C24.5514796,58.2315306 25.3190816,58.5497449 26.1352041,58.5497449 C26.9513265,58.5497449 27.7189286,58.2315306 28.2935204,57.6569388 L30.1622449,55.7990816 C30.5536224,55.9772449 30.9592347,56.1434694 31.377551,56.2969898 L31.377551,58.9285714 C31.377551,60.6165306 32.7508163,61.9897959 34.4387755,61.9897959 L40.5612245,61.9897959 C42.2491837,61.9897959 43.622449,60.6165306 43.622602,58.9285714 L43.622602,56.2969898 C44.0409184,56.1434694 44.4463776,55.9772449 44.8379082,55.7989286 L46.7034184,57.6535714 C47.2812245,58.2313776 48.0488265,58.5495918 48.864949,58.5495918 C49.6810714,58.5495918 50.4486735,58.2312245 51.0263265,57.6535714 L55.3578061,53.3220918 C55.9356122,52.7442857 56.2538265,51.9766837 56.2538265,51.1605612 C56.2538265,50.3444388 55.9356122,49.5768367 55.3610204,49.0022449 L53.5031633,47.1335204 C53.6813265,46.7421429 53.847551,46.3365306 54.0010714,45.9182143 L56.6326531,45.9182143 C58.3206122,45.9182143 59.6938776,44.544949 59.6938776,42.8569898 L59.6938776,36.7345408 C59.6938776,35.0465816 58.3206122,33.6733163 56.6326531,33.6733163 L54.0010714,33.6733163 C53.847551,33.255 53.6813265,32.8495408 53.5030102,32.4580102 L55.3576531,30.5925 C55.9354592,30.0146939 56.2536735,29.2470918 56.2536735,28.4309694 C56.2536735,27.6148469 55.9353061,26.8472449 55.3576531,26.2695918 L51.0261735,21.9381122 C50.4483673,21.3603061 49.6807653,21.0420918 48.8646429,21.0420918 C48.0485204,21.0420918 47.2809184,21.3603061 46.7063265,21.934898 L44.837602,23.7927551 C44.4462245,23.6145918 44.0406122,23.4483673 43.6222959,23.2948469 L43.6222959,20.6632653 C43.6222959,18.9753061 42.2490306,17.6020408 40.5610714,17.6020408 L34.4386224,17.6020408 C32.7506633,17.6020408 31.377398,18.9753061 31.377398,20.6632653 L31.377398,23.2948469 C30.9590816,23.4483673 30.5536224,23.6145918 30.1620918,23.7929082 L28.2965816,21.9382653 C27.7187755,21.3604592 26.9511735,21.0422449 26.135051,21.0422449 C25.3189286,21.0422449 24.5513265,21.3606122 23.9736735,21.9382653 L19.6421939,26.2697449 C19.0643878,26.847551 18.7461735,27.6151531 18.7461735,28.4312755 C18.7461735,29.247398 19.0643878,30.015 19.6389796,30.5895918 L21.4968367,32.4583163 C21.3186735,32.8496939 21.152449,33.2553061 20.9989286,33.6736224 L18.3673469,33.6736224 C16.6793878,33.6736224 15.3061224,35.0468878 15.3061224,36.7348469 L15.3061224,42.8572959 C15.3061224,44.5452551 16.6793878,45.9185204 18.3673469,45.9185204 Z M18.3673469,36.7345408 L22.1023469,36.7345408 C22.7782653,36.7345408 23.3741327,36.2911224 23.5683673,35.6436735 C23.8703571,34.6372959 24.2508673,33.7120408 24.6994898,32.8937755 C25.0258163,32.2988265 24.9212755,31.5601531 24.4428061,31.0787755 L21.8070918,28.4343367 L26.1352041,24.1059184 L28.7831633,26.7384184 C29.2643878,27.2168878 30.0030612,27.3211224 30.5981633,26.995102 C31.4164286,26.5464796 32.3416837,26.1659694 33.3480612,25.8639796 C33.9956633,25.669898 34.4389286,25.0738776 34.4389286,24.3979592 L34.4389286,20.6632653 L40.5613776,20.6632653 L40.5613776,24.3982653 C40.5613776,25.0741837 41.0047959,25.670051 41.6522449,25.8642857 C42.6586224,26.1662755 43.5838776,26.5467857 44.4021429,26.9954082 C44.9970918,27.3217347 45.7356122,27.2173469 46.2171429,26.7387245 L48.8615816,24.1030102 L53.19,28.4311224 L50.5575,31.0790816 C50.0790306,31.5603061 49.9744898,32.2989796 50.3008163,32.8940816 C50.7494388,33.7123469 51.129949,34.637602 51.4319388,35.6439796 C51.6260204,36.2915816 52.2220408,36.7348469 52.8979592,36.7348469 L56.6326531,36.7348469 L56.6326531,42.8572959 L52.8979592,42.8572959 C52.2220408,42.8572959 51.6261735,43.3007143 51.4319388,43.9481633 C51.129949,44.9545408 50.7494388,45.8797959 50.3008163,46.6980612 C49.9744898,47.2930102 50.0790306,48.0316837 50.5575,48.5130612 L53.1932143,51.1575 L48.865102,55.4859184 L46.2171429,52.8534184 C45.7356122,52.374949 44.9970918,52.2704082 44.4021429,52.5967347 C43.5838776,53.0453571 42.6586224,53.4258673 41.6522449,53.7278571 C41.0046429,53.9219388 40.5613776,54.5179592 40.5613776,55.1938776 L40.5613776,58.9285714 L34.4389286,58.9285714 L34.4389286,55.1937245 C34.4389286,54.5178061 33.9955102,53.9219388 33.3480612,53.7277041 C32.3416837,53.4257143 31.4164286,53.0452041 30.5981633,52.5965816 C30.3668878,52.4698469 30.1138776,52.4081633 29.8627041,52.4081633 C29.4676531,52.4081633 29.0773469,52.5607653 28.7828571,52.8531122 L26.1384184,55.4888265 L21.81,51.1607143 L24.4425,48.5127551 C24.9209694,48.0315306 25.0255102,47.2928571 24.6991837,46.6977551 C24.2505612,45.8794898 23.870051,44.9542347 23.5680612,43.9478571 C23.3739796,43.3002551 22.7779592,42.8569898 22.1020408,42.8569898 L18.3673469,42.8569898 L18.3673469,36.7345408 Z" id="Shape" fill="url(#linearGradient-1)"></path>
                <path d="M37.5,47.4489796 C41.719898,47.4489796 45.1530612,44.0158163 45.1530612,39.7959184 C45.1530612,35.5760204 41.719898,32.1428571 37.5,32.1428571 C33.280102,32.1428571 29.8469388,35.5760204 29.8469388,39.7959184 C29.8469388,44.0158163 33.280102,47.4489796 37.5,47.4489796 Z M37.5,35.2040816 C40.0319388,35.2040816 42.0918367,37.2639796 42.0918367,39.7959184 C42.0918367,42.3278571 40.0319388,44.3877551 37.5,44.3877551 C34.9680612,44.3877551 32.9081633,42.3278571 32.9081633,39.7959184 C32.9081633,37.2639796 34.9680612,35.2040816 37.5,35.2040816 Z" id="Shape" fill="url(#linearGradient-1)"></path>
                <rect id="Rectangle" fill="#000000" fill-rule="nonzero" x="58.1632653" y="22.9591837" width="3.06122449" height="3.06122449"></rect>
                <rect id="Rectangle" fill="#000000" fill-rule="nonzero" x="62.755102" y="22.9591837" width="3.06122449" height="3.06122449"></rect>
                <rect id="Rectangle" fill="#000000" fill-rule="nonzero" x="67.3469388" y="22.9591837" width="3.06122449" height="3.06122449"></rect>
                <rect id="Rectangle" fill="#000000" fill-rule="nonzero" x="4.59183673" y="53.5714286" width="3.06122449" height="3.06122449"></rect>
                <rect id="Rectangle" fill="#000000" fill-rule="nonzero" x="9.18367347" y="53.5714286" width="3.06122449" height="3.06122449"></rect>
                <rect id="Rectangle" fill="#000000" fill-rule="nonzero" x="13.7755102" y="53.5714286" width="3.06122449" height="3.06122449"></rect>
                <rect id="Rectangle" fill="url(#linearGradient-2)" x="9.94897959" y="65.8163265" width="55.1020408" height="3.06122449"></rect>
            </g>
        </g>
    </g>
</svg>
