<?xml version="1.0" encoding="UTF-8"?>
<svg width="30px" height="30px" viewBox="0 0 30 30" version="1.1" xmlns="http://www.w3.org/2000/svg" xmlns:xlink="http://www.w3.org/1999/xlink">
    <g id="Page-1" stroke="none" stroke-width="1" fill="none" fill-rule="evenodd">
        <g id="BLOG" transform="translate(-1015.000000, -1008.000000)" fill-rule="nonzero">
            <g id="Group-7" transform="translate(935.000000, 541.000000)">
                <g id="Group" transform="translate(30.000000, 35.000000)">
                    <g id="facebook-svgrepo-com-(2)" transform="translate(50.000000, 432.000000)">
                        <path d="M14.9649658,1.5 C18.683329,1.5 22.04951,3.00715309 24.4861417,5.44378482 C26.9229125,7.88055562 28.4300342,11.2469072 28.4300342,14.9650685 C28.4300342,18.6835282 26.9230303,22.0497757 24.4863865,24.4864027 C22.0497305,26.923042 18.6834438,28.4300342 14.9649658,28.4300342 C11.2465102,28.4300342 7.88026602,26.9230339 5.44363919,24.486407 C3.0069969,22.0497647 1.5,18.6835016 1.5,14.9650685 C1.5,11.2469114 3.00711813,7.88056312 5.44387204,5.44379248 C7.88049006,3.00715772 11.2466474,1.5 14.9649658,1.5 Z" id="Path" stroke="#8A8A8A" stroke-width="3" fill="#FFFFFF"></path>
                        <path d="M16.7870548,10.3024315 L18.7156849,10.3024315 L18.7156849,7.4534589 L16.4485274,7.4534589 L16.4485274,7.46373288 C13.7014726,7.5610274 13.1384589,9.10520548 13.0888356,10.7270548 L13.0831849,10.7270548 L13.0831849,12.1496918 L11.2126027,12.1496918 L11.2126027,14.9396918 L13.0831849,14.9396918 L13.0831849,22.4184247 L15.9022603,22.4184247 L15.9022603,14.9396918 L18.2115411,14.9396918 L18.657637,12.1496918 L15.9031849,12.1496918 L15.9031849,11.2901712 C15.9031849,10.7420548 16.267911,10.3024315 16.7870548,10.3024315 Z" id="Path" fill="#8A8A8A"></path>
                    </g>
                </g>
            </g>
        </g>
    </g>
</svg>
