<?xml version="1.0" encoding="UTF-8"?>
<svg width="19px" height="16px" viewBox="0 0 19 16" version="1.1" xmlns="http://www.w3.org/2000/svg" xmlns:xlink="http://www.w3.org/1999/xlink">
    <g id="Page-1" stroke="none" stroke-width="1" fill="none" fill-rule="evenodd">
        <g id="Blog-Single" transform="translate(-501.000000, -2391.000000)" fill="#000000" fill-rule="nonzero">
            <path d="M506.977449,2406.55965 C513.761731,2406.55965 517.473625,2400.94036 517.473625,2396.06351 C517.473625,2395.90362 517.473625,2395.74367 517.462192,2395.58378 C518.181726,2395.0584 518.809937,2394.40739 519.312388,2393.67646 C518.649983,2393.96197 517.930449,2394.16758 517.18805,2394.24751 C517.953246,2393.79068 518.535726,2393.07115 518.809868,2392.21453 C518.101698,2392.63712 517.302238,2392.94549 516.468516,2393.10538 C515.794609,2392.38584 514.835264,2391.94042 513.773061,2391.94042 C511.728682,2391.94042 510.083998,2393.5965 510.083998,2395.62948 C510.083998,2395.91502 510.118261,2396.20053 510.175356,2396.47464 C507.114503,2396.31472 504.384785,2394.85282 502.568818,2392.61426 C502.248979,2393.16247 502.066298,2393.79065 502.066298,2394.47592 C502.066298,2395.7551 502.71727,2396.8858 503.710913,2397.54824 C503.105636,2397.52544 502.53452,2397.35412 502.043432,2397.08002 L502.043432,2397.12568 C502.043432,2398.91881 503.311217,2400.40354 505.001563,2400.74621 C504.693225,2400.82614 504.361988,2400.87183 504.030786,2400.87183 C503.790907,2400.87183 503.562495,2400.849 503.334048,2400.81474 C503.802339,2402.27667 505.161482,2403.33884 506.783301,2403.37314 C505.515516,2404.36678 503.927927,2404.94926 502.203352,2404.94926 C501.89498,2404.94926 501.609473,2404.93783 501.3125,2404.9036 C502.945751,2405.9543 504.88734,2406.55965 506.977449,2406.55965 Z" id="Path"></path>
        </g>
    </g>
</svg>
