<?xml version="1.0" encoding="UTF-8"?>
<svg width="17px" height="16px" viewBox="0 0 17 16" version="1.1" xmlns="http://www.w3.org/2000/svg" xmlns:xlink="http://www.w3.org/1999/xlink">
    <g id="Page-1" stroke="none" stroke-width="1" fill="none" fill-rule="evenodd">
        <g id="Blog-Single" transform="translate(-531.000000, -2390.000000)" fill="#000000" fill-rule="nonzero">
            <g id="Group-6" transform="translate(531.344727, 2390.250381)">
                <path d="M1.89105155,3.80002451 C2.93485323,3.80002451 3.7821031,2.93519655 3.7821031,1.89105155 C3.7821031,0.847352869 2.93475024,0 1.89105155,0 C0.847352869,0 0,0.847352869 0,1.89105155 C0,2.93519655 0.84690655,3.80002451 1.89105155,3.80002451 Z" id="Path"></path>
                <path d="M8.83264343,15.7496191 L8.83264343,10.5430046 C8.83264343,9.17191417 9.09277846,7.84651984 10.7904711,7.84651984 C12.4037948,7.84651984 12.4843028,9.30121832 12.4879956,10.4989574 L12.4881637,15.7496191 L15.7499624,15.7496191 L15.7499624,9.97346789 C15.7499624,7.1468984 15.1424543,4.97075231 11.8377747,4.97075231 C10.2490867,4.97075231 9.18420509,5.84261836 8.7482549,6.66878827 L8.70255875,6.66878827 L8.70255875,5.23442356 L5.57084472,5.23442356 L5.57084472,15.7496191 L8.83264343,15.7496191 Z" id="Path"></path>
                <polygon id="Path" points="3.52546996 15.7496191 3.52546996 5.23442356 0.260169363 5.23442356 0.260169363 15.7496191"></polygon>
            </g>
        </g>
    </g>
</svg>
