<?xml version="1.0" encoding="UTF-8"?>
<svg width="18px" height="14px" viewBox="0 0 18 14" version="1.1" xmlns="http://www.w3.org/2000/svg" xmlns:xlink="http://www.w3.org/1999/xlink">
    <g id="Page-1" stroke="none" stroke-width="1" fill="none" fill-rule="evenodd">
        <g id="Blog-Single" transform="translate(-558.000000, -2392.000000)" fill="#000000" fill-rule="nonzero">
            <path d="M574.312461,2406 C575.244443,2406 575.999957,2405.24449 575.999957,2404.3125 L575.999957,2394.18753 C575.999957,2393.25555 575.244443,2392.50003 574.312461,2392.50003 L559.687496,2392.50003 C558.755514,2392.50003 558,2393.25555 558,2394.18753 L558,2404.3125 C558,2405.24449 558.755514,2406 559.687496,2406 L574.312461,2406 Z M566.999979,2400.93737 C566.184074,2400.95056 565.010874,2399.8314 564.419056,2399.36585 C561.732871,2397.26246 560.475866,2396.26411 559.687496,2395.62206 L559.687496,2394.18753 L574.312461,2394.18753 L574.312461,2395.62206 C573.524194,2396.26401 572.267498,2397.26215 569.580901,2399.36585 C568.988843,2399.83157 567.81602,2400.95042 566.999979,2400.93737 Z M574.312461,2404.3125 L559.687496,2404.3125 L559.687496,2397.78746 C560.493067,2398.4291 561.63547,2399.32946 563.37673,2400.69296 C564.145119,2401.29783 565.490804,2402.63311 566.999979,2402.62497 C568.501737,2402.63311 569.830359,2401.31719 570.622918,2400.69324 C572.364143,2399.32977 573.506856,2398.42917 574.312461,2397.78746 L574.312461,2404.3125 Z" id=""></path>
        </g>
    </g>
</svg>
