<?xml version="1.0" encoding="UTF-8"?>
<svg width="30px" height="30px" viewBox="0 0 30 30" version="1.1" xmlns="http://www.w3.org/2000/svg" xmlns:xlink="http://www.w3.org/1999/xlink">
    <g id="Page-1" stroke="none" stroke-width="1" fill="none" fill-rule="evenodd">
        <g id="BLOG" transform="translate(-1065.000000, -1008.000000)" fill-rule="nonzero">
            <g id="Group-7" transform="translate(935.000000, 541.000000)">
                <g id="Group" transform="translate(30.000000, 35.000000)">
                    <g id="twitter-svgrepo-com" transform="translate(100.000265, 432.000000)">
                        <circle id="Oval" stroke="#8A8A8A" stroke-width="3" fill="#FFFFFF" cx="14.8932743" cy="14.8932743" r="13.3932743"></circle>
                        <path d="M23.0159292,10.4545979 C22.4728058,10.6954339 21.8885641,10.8583257 21.2758558,10.9310735 C21.9014418,10.5562641 22.3815321,9.96321133 22.6081348,9.25538868 C22.0227634,9.60263522 21.3741331,9.85454146 20.6843844,9.99032232 C20.1317722,9.40178801 19.344424,9.0339823 18.4725799,9.0339823 C16.7998321,9.0339823 15.4431532,10.3906612 15.4431532,12.063409 C15.4431532,12.3008561 15.4700382,12.5319772 15.5220009,12.7538354 C13.0042941,12.6275434 10.7719303,11.4215564 9.27766318,9.58817603 C9.01694587,10.0355073 8.86738359,10.5562641 8.86738359,11.1113616 C8.86738359,12.1621382 9.40259964,13.0897857 10.2150255,13.6329092 C9.71866854,13.6173203 9.25122997,13.4810876 8.84298371,13.2535813 C8.84275778,13.266459 8.84275778,13.2793367 8.84275778,13.2919885 C8.84275778,14.7598225 9.88743443,15.9841094 11.2730317,16.2622229 C11.0190922,16.3318078 10.7509193,16.3686335 10.475065,16.3686335 C10.2794141,16.3686335 10.0898631,16.3498818 9.90505657,16.3146375 C10.2904844,17.5179134 11.4090385,18.3938242 12.7349916,18.41845 C11.6979964,19.2311018 10.3919247,19.7152588 8.97221274,19.7152588 C8.72821387,19.7152588 8.48647425,19.7010255 8.2499309,19.6727849 C9.58989136,20.532655 11.1826618,21.0339823 12.893365,21.0339823 C18.4655762,21.0339823 21.512851,16.4178852 21.512851,12.4142704 C21.512851,12.283008 21.509914,12.1521975 21.5040399,12.0225166 C22.0964149,11.5955186 22.6099422,11.0621099 23.0159292,10.4545979 L23.0159292,10.4545979 Z" id="Path" fill="#8A8A8A"></path>
                    </g>
                </g>
            </g>
        </g>
    </g>
</svg>
