<?xml version="1.0" encoding="UTF-8"?>
<svg width="30px" height="30px" viewBox="0 0 30 30" version="1.1" xmlns="http://www.w3.org/2000/svg" xmlns:xlink="http://www.w3.org/1999/xlink">
    <g id="Page-1" stroke="none" stroke-width="1" fill="none" fill-rule="evenodd">
        <g id="Home-Final" transform="translate(-1195.000000, -5934.000000)" fill-rule="nonzero">
            <g id="Footer" transform="translate(165.000000, 5800.000000)">
                <g id="Group-10" transform="translate(0.000000, 80.000000)">
                    <g id="Group-11" transform="translate(980.000000, 0.000000)">
                        <g id="facebook-svgrepo-com-(2)" transform="translate(50.000000, 54.000000)">
                            <path d="M14.9649658,0 C23.2303767,0 29.9300342,6.70058219 29.9300342,14.9650685 C29.9300342,23.2304795 23.2303767,29.9300342 14.9649658,29.9300342 C6.69955479,29.9300342 0,23.2303767 0,14.9650685 C0,6.70058219 6.69965753,0 14.9649658,0 Z" id="Path" fill="#3B5998"></path>
                            <path d="M16.7870548,10.3024315 L18.7156849,10.3024315 L18.7156849,7.4534589 L16.4485274,7.4534589 L16.4485274,7.46373288 C13.7014726,7.5610274 13.1384589,9.10520548 13.0888356,10.7270548 L13.0831849,10.7270548 L13.0831849,12.1496918 L11.2126027,12.1496918 L11.2126027,14.9396918 L13.0831849,14.9396918 L13.0831849,22.4184247 L15.9022603,22.4184247 L15.9022603,14.9396918 L18.2115411,14.9396918 L18.657637,12.1496918 L15.9031849,12.1496918 L15.9031849,11.2901712 C15.9031849,10.7420548 16.267911,10.3024315 16.7870548,10.3024315 Z" id="Path" fill="#FFFFFF"></path>
                        </g>
                    </g>
                </g>
            </g>
        </g>
    </g>
</svg>
