<?xml version="1.0" encoding="UTF-8"?>
<svg width="123px" height="25px" viewBox="0 0 123 25" version="1.1" xmlns="http://www.w3.org/2000/svg" xmlns:xlink="http://www.w3.org/1999/xlink">
    <defs>
        <polygon id="path-1" points="0 0 20 0 20 22 0 22"></polygon>
        <linearGradient x1="8.67704671%" y1="0%" x2="82.4650302%" y2="89.3677217%" id="linearGradient-3">
            <stop stop-color="#05B4E8" offset="0%"></stop>
            <stop stop-color="#0076CC" offset="99.9602204%"></stop>
        </linearGradient>
        <polygon id="path-4" points="0 0 31 0 31 25 0 25"></polygon>
        <linearGradient x1="0%" y1="17.4817898%" x2="100%" y2="82.5182102%" id="linearGradient-6">
            <stop stop-color="#0085D1" offset="0%"></stop>
            <stop stop-color="#004CBE" offset="99.9602204%"></stop>
        </linearGradient>
    </defs>
    <g id="Page-1" stroke="none" stroke-width="1" fill="none" fill-rule="evenodd">
        <g id="Home-Final" transform="translate(-165.000000, -52.000000)">
            <g id="Group-15" transform="translate(165.000000, 40.000000)">
                <g transform="translate(0.000000, 12.000000)">
                    <path d="M86.0246118,14.450886 C86.2118678,14.0733621 86.1510634,13.7983788 86.1513325,13.5340033 C86.1561753,9.66139114 86.1712419,5.78823501 86.1405706,1.91589484 C86.1351897,1.23809252 86.3141053,0.985684591 86.9990966,1.01505965 C88.0725904,1.06075419 89.1498508,1.04905856 90.2244208,1.02185943 C90.8055602,1.0074439 91.0038472,1.23156473 91,1.81797797 C90.9815164,4.67143872 90.997121,7.52517146 90.9981972,10.3786322 C91,14.2289411 91.0011567,18.078978 90.9984663,21.9290148 C90.9979282,22.9631258 90.990933,22.9680216 89.9451509,22.9734614 C89.0938892,22.9778133 88.2426275,22.9606778 87.3913657,22.9691096 C87.0475249,22.9726455 86.8078048,22.8396417 86.5901466,22.5709143 C83.4261649,18.6643032 80.2554571,14.763404 77.0836731,10.8635927 C76.7457512,10.44799 76.3903414,10.0470748 76.031703,9.62576028 C75.7879473,9.87816821 75.8850729,10.1395519 75.8848038,10.3712884 C75.8772706,14.2667479 75.879961,18.1622073 75.8767325,22.0576667 C75.8761944,22.9680216 75.8708135,22.9769973 74.9915709,22.986245 C73.9164629,22.9976687 72.8408167,22.9789013 71.7657087,22.9995726 C71.2402617,23.0099083 70.9989274,22.8347459 71,22.2605722 C71.0123797,15.421079 71.0123797,8.58131369 71.0010798,1.74182041 C71,1.17091067 71.236226,0.98758853 71.7646325,1.00064411 C72.6826176,1.02321939 73.601679,1.01941151 74.5202022,1.00825987 C74.9326498,1.00336403 75.2302148,1.14697543 75.4976466,1.4793488 C78.6223475,5.36039269 81.7586174,9.23191688 84.8940802,13.1039851 C85.2454544,13.5375392 85.611088,13.9591257 86.0246118,14.450886" id="Fill-1" fill="#1B283A"></path>
                    <g id="Group-5" transform="translate(0.000000, 1.000000)">
                        <mask id="mask-2" fill="white">
                            <use xlink:href="#path-1"></use>
                        </mask>
                        <g id="Clip-4"></g>
                        <path d="M19.9635284,11.0315431 C19.9635284,14.3238989 19.9664962,17.6159821 19.9616398,20.908338 C19.960021,21.9369947 19.9025534,21.9855239 18.8953858,21.9868871 C18.1760961,21.9879777 17.4559969,21.9612593 16.7385958,21.9975199 C16.1639194,22.0264194 15.7646138,21.8020397 15.4092857,21.3617321 C13.3936016,18.8630205 11.3636181,16.3760323 9.33660231,13.886863 C8.05180943,12.3093894 6.76512793,10.7338243 5.47359002,9.16207609 C5.34975131,9.01130822 5.23454624,8.74385202 5.02302217,8.80492255 C4.75133245,8.8834418 4.84360443,9.18715863 4.84306483,9.39899703 C4.82984457,13.1908225 4.82579755,16.982648 4.81554511,20.7744735 C4.8125773,21.9770722 4.80745108,21.9784354 3.61762818,21.9822523 C2.71865089,21.9849787 1.81832458,21.951717 0.921505691,21.9947936 C0.232973259,22.0280552 0.0254962049,21.7393334 0.0271150116,21.075464 C0.0370976526,17.1702218 0.0168625694,13.2649796 0.0093081383,9.3597374 C0.0039121161,6.61238152 0.00175370722,3.864753 -0.000154695817,1.11766976 C-0.000674502775,0.0383026921 0.00202350833,0.0366668744 1.09741602,0.0282151494 C1.7265922,0.0233076962 2.35927581,0.0644757758 2.98413518,0.0102211544 C3.75522675,-0.0568473726 4.26919786,0.234055547 4.75780768,0.84503347 C7.9484756,4.83506555 11.1742177,8.79674346 14.3948335,12.7625109 C14.5580632,12.9634439 14.704835,13.3383188 14.9751757,13.2551647 C15.3148553,13.1501997 15.1732097,12.7464254 15.1732097,12.4721533 C15.1705117,8.65797159 15.1543236,4.84406255 15.1462296,1.02988087 C15.1440712,0.0328499663 15.1686231,0.0124022447 16.1757907,0.00804006405 C17.1643419,0.00367788343 18.1539724,0.0336678752 19.1417143,0.00122415683 C19.7870785,-0.02031411 20.0037288,0.241144091 20,0.882112005 C19.9799863,4.26525571 19.9907783,7.64839942 19.9907783,11.0315431 L19.9635284,11.0315431 Z" id="Fill-3" fill="url(#linearGradient-3)" mask="url(#mask-2)"></path>
                    </g>
                    <g id="Group-8" transform="translate(35.000000, 0.000000)">
                        <mask id="mask-5" fill="white">
                            <use xlink:href="#path-4"></use>
                        </mask>
                        <g id="Clip-7"></g>
                        <path d="M31,10.8452732 C30.9859108,18.8987699 26.4971529,24.0570488 20.2727167,24.9049438 C17.9853929,25.2167786 15.8386899,24.733284 13.736422,23.8727952 C11.5458258,22.9764412 9.79226501,21.4169934 7.92707461,20.0240035 C5.51321912,18.2211657 3.18904666,16.3049833 0.85132692,14.4041325 C-0.163635779,13.5786874 -0.266053264,11.863459 0.517250837,10.8373336 C1.37940014,9.70799332 3.02756301,9.37151835 4.14982022,10.1747873 C5.40321516,11.0716888 6.49756495,12.1668067 7.64447822,13.1948486 C9.99168106,15.2991175 12.313686,17.4326809 15.2027803,18.7941861 C16.6163041,19.4602916 18.0859138,19.8263347 19.6476449,19.8348219 C21.3700469,19.8444042 22.7497026,19.0559193 23.9023057,17.870728 C25.8772291,15.8395582 26.5386076,13.3739003 25.837671,10.6273448 C25.1418824,7.90132264 23.4059331,6.00184072 20.6929535,5.35106693 C19.2610054,5.00774749 18.134684,4.35450969 17.0571328,3.44474053 C16.2269551,2.74359133 15.3509876,2.09774557 14.4994051,1.42260541 C14.3490303,1.30323757 14.0840453,1.23561404 14.1490723,0.978808904 C14.2062419,0.75129817 14.4590342,0.735692741 14.6465287,0.676556377 C18.7307646,-0.608290645 22.5714203,-0.0946803718 26.0162243,2.48842887 C29.3250135,4.96941836 30.9718216,8.3711282 31,10.8452732" id="Fill-6" fill="#1B283A" mask="url(#mask-5)"></path>
                    </g>
                    <path d="M25,12.8064264 C25.0853759,5.33766216 30.7719545,-0.240230544 37.5952526,0.00796865847 C40.2860849,0.105985379 42.7622577,1.01668976 44.9161703,2.59401765 C48.3352727,5.09769966 51.6795696,7.70598774 54.9346961,10.4334334 C56.3766006,11.6414826 56.1817267,13.3085905 55.3707909,14.2934252 C54.4376185,15.4262459 52.7837649,15.5819195 51.5483889,14.6061452 C49.9983415,13.3816226 48.5919426,11.9890713 47.1112801,10.6835545 C45.1492601,8.95357312 43.1335752,7.30293859 40.74847,6.18521851 C39.3976332,5.5520909 37.9882528,5.22564305 36.4962069,5.17320273 C33.7565884,5.07683335 31.1343279,7.47645839 30.3038776,10.0081452 C28.8226731,14.5248765 31.4929068,19.1234256 36.1156742,19.9583524 C36.8125044,20.0840993 37.3735462,20.3597542 37.9126342,20.8133218 C39.0059881,21.7328119 40.1494834,22.591076 41.2653331,23.4831105 C41.4501788,23.6310966 41.7461487,23.7458612 41.6811003,24.0497954 C41.6193044,24.338629 41.3152035,24.3718504 41.0861792,24.435273 C36.1977978,25.7913082 31.909216,24.7224592 28.3548673,21.042302 C26.0353525,18.6407551 25.0121966,15.6634628 25,12.8064264" id="Fill-9" fill="url(#linearGradient-6)"></path>
                    <path d="M112.909074,23.9984343 C110.899832,23.9154422 108.222109,23.4817325 105.770828,22.0865823 C104.858819,21.5676746 104.851496,21.5654689 105.256925,20.6186417 C105.563368,19.9031447 105.912932,19.206121 106.200392,18.4834553 C106.408394,17.9606876 106.621549,17.8512262 107.141962,18.1672029 C109.560699,19.6354192 112.185812,20.2417305 114.998317,19.9706964 C115.609035,19.9119678 116.208906,19.7934076 116.7662,19.5300937 C117.529869,19.1694501 118.059502,18.604497 118.116723,17.7034395 C118.174487,16.7910775 117.701261,16.1952436 116.962541,15.7587766 C116.048362,15.2183627 115.027063,15.0129503 114.022035,14.7504635 C112.77592,14.4251123 111.530076,14.0997611 110.288572,13.7570394 C109.589717,13.5640345 108.934794,13.2579837 108.286652,12.9257395 C104.063963,10.7621538 104.664647,5.02384046 107.691662,2.92449788 C109.197848,1.87978957 110.840984,1.33386124 112.6048,1.12431299 C115.626934,0.765048034 118.543846,1.17173707 121.317029,2.51091581 C121.88734,2.78636146 122.02429,3.09158503 121.738728,3.68245595 C121.400555,4.3808582 121.110382,5.1095898 120.872549,5.84935026 C120.670784,6.47716784 120.424816,6.63019321 119.808402,6.30098188 C117.908992,5.28632721 115.872903,4.84407012 113.725083,4.99240822 C112.91043,5.04865538 112.105269,5.17328144 111.380922,5.59485943 C110.621592,6.03656508 110.173587,6.67899589 110.162469,7.59797525 C110.152163,8.46953053 110.655762,8.98898961 111.333464,9.39099138 C112.125337,9.86026917 113.008601,10.0654059 113.885356,10.2854315 C115.593849,10.714454 117.331901,11.046974 118.974766,11.7062238 C121.013568,12.5245649 122.585381,13.8011548 122.925453,16.1806303 C123.36939,19.2891132 121.811407,21.8883386 118.76351,23.0937925 C117.124441,23.7417377 115.415406,24.0238007 112.909074,23.9984343" id="Fill-11" fill="#1B283A"></path>
                    <path d="M96.0135322,12.0002234 C96.0138065,8.6174782 96.0291626,5.23446033 96.000644,1.85171509 C95.9951597,1.19577658 96.196435,0.971950517 96.8570238,1.00275727 C97.9281154,1.05264786 99.0030461,1.02456736 100.076331,1.03001989 C100.98207,1.03492716 100.98728,1.03519978 100.98728,1.92341577 C100.988651,7.84894509 100.987829,13.774747 100.987555,19.7002763 C100.987555,20.5631381 100.956842,21.427363 100.997975,22.2880437 C101.024025,22.8409296 100.799442,22.999598 100.284188,22.9903287 C99.1426225,22.9696091 97.9991376,22.9529789 96.8592175,22.9979622 C96.2016451,23.0238617 95.9948855,22.806306 96.0000956,22.1487318 C96.0286142,18.7659865 96.013258,15.3829687 96.0135322,12.0002234" id="Fill-13" fill="#1B283A"></path>
                </g>
            </g>
        </g>
    </g>
</svg>
