<?xml version="1.0" encoding="UTF-8"?>
<svg width="87px" height="87px" viewBox="0 0 87 87" version="1.1" xmlns="http://www.w3.org/2000/svg" xmlns:xlink="http://www.w3.org/1999/xlink">
    <defs>
        <linearGradient x1="66.840475%" y1="5.36763071%" x2="31.9909582%" y2="94.4308663%" id="linearGradient-1">
            <stop stop-color="#0076CC" offset="0.0397795564%"></stop>
            <stop stop-color="#05B4E8" offset="100%"></stop>
        </linearGradient>
        <path d="M47.505,50 L47.505,47.558 L41.125,47.558 L44.601,44.082 C46.3463333,42.3073333 47.219,40.6353333 47.219,39.066 C47.219,37.5993333 46.735,36.4406667 45.767,35.59 C44.799,34.7393333 43.6403333,34.314 42.291,34.314 C41.2203333,34.314 40.245,34.578 39.365,35.106 C38.485,35.634 37.803,36.4113333 37.319,37.438 L37.319,37.438 L39.453,38.692 C40.069,37.416 41.0223333,36.778 42.313,36.778 C43.0023333,36.778 43.5706667,36.987 44.018,37.405 C44.4653333,37.823 44.689,38.406 44.689,39.154 C44.689,40.1073333 44.0363333,41.2366667 42.731,42.542 L42.731,42.542 L37.363,48.02 L37.363,50 L47.505,50 Z" id="path-2"></path>
    </defs>
    <g id="Page-1" stroke="none" stroke-width="1" fill="none" fill-rule="evenodd">
        <g id="Banks" transform="translate(-677.000000, -2407.000000)">
            <g id="Group-20" transform="translate(0.000000, 2133.000000)">
                <g id="Group-18" transform="translate(221.000000, 82.000000)">
                    <g id="Group-35" transform="translate(0.000000, 193.000000)">
                        <g id="Group-19-Copy-5" transform="translate(326.500000, 0.000000)">
                            <g id="Asset-2" transform="translate(130.500000, 0.000000)">
                                <path d="M42.5012214,21.2415619 C47.1968441,24.008544 52.2576115,26.1061144 57.5358536,27.4725445 C58.8994151,32.7516644 60.9957441,37.8130474 63.7624552,42.5092392 C60.9984402,47.2004059 58.90291,52.2557602 57.5374636,57.5279337 C52.258041,58.8938127 47.1965656,60.991341 42.5000106,63.7581332 C37.8033462,60.9893598 32.7408022,58.8911426 27.4606569,57.5252783 C26.0947922,52.250407 23.9981243,47.1931092 21.2329137,42.4998658 C24.0001212,37.80683 26.0973157,32.7485329 27.462524,27.4728077 C32.7426836,26.107686 37.8046075,24.009803 42.5012214,21.2415619 Z" id="Path-Copy-2" stroke="#FFFFFF" stroke-width="40"></path>
                                <g id="2" fill-rule="nonzero">
                                    <use fill="#8A8A8A" xlink:href="#path-2"></use>
                                    <use fill="url(#linearGradient-1)" xlink:href="#path-2"></use>
                                </g>
                                <path d="M85.000547,42.4999595 C84.9991567,39.8266989 84.1989692,37.2148014 82.7026195,34.999291 C79.4988089,30.4595585 77.3191893,25.2784993 76.3143915,19.8141703 C75.8688973,17.0264767 74.5492599,14.4522788 72.5457966,12.462826 L72.5457966,12.462826 C70.5543811,10.4618514 67.9801494,9.14291861 65.1924406,8.69526199 C59.7263209,7.68516357 54.5442158,5.50237773 50.0031647,2.29729511 C47.7870481,0.80135472 45.1744358,0.00138610884 42.5004437,0 L42.5004437,0 C39.8264516,0.00138610884 37.2138394,0.80135472 34.9977227,2.29729511 C30.4577411,5.50430343 25.275198,7.68727379 19.8084469,8.69526199 C14.0962089,9.62691452 9.61840344,14.103495 8.68649597,19.8141703 C7.67823195,25.279426 5.49466425,30.4605513 2.28677837,34.999291 C-0.761422195,39.5354559 -0.761422195,45.4644632 2.28677837,50.0006281 C5.49273802,54.5404369 7.67612115,59.7211243 8.68649597,65.1857487 C9.61840344,70.8964241 14.0962089,75.3730045 19.8084469,76.3046571 C25.275198,77.3126453 30.4577411,79.4956156 34.9977227,82.7026239 C37.2138394,84.1985643 39.8264516,84.9985329 42.5004437,84.9999191 L42.5004437,84.9999191 C45.1744358,84.9985329 47.7870481,84.1985643 50.0031647,82.7026239 C54.5442158,79.4975413 59.7263209,77.3147555 65.1924406,76.3046571 C67.9816479,75.8615823 70.5572265,74.5419594 72.5457966,72.5370931 L72.5457966,72.5370931 C74.5512115,70.549067 75.8711955,67.974193 76.3143915,65.1857487 C77.3247663,59.7211243 79.5081494,54.5404369 82.7141091,50.0006281 C84.2063953,47.7838214 85.0025514,45.1720238 85.000547,42.4999595 L85.000547,42.4999595 Z" id="Path" stroke="#039CDD" stroke-width="2"></path>
                            </g>
                        </g>
                    </g>
                </g>
            </g>
        </g>
    </g>
</svg>
