<?xml version="1.0" encoding="UTF-8"?>
<svg width="87px" height="87px" viewBox="0 0 87 87" version="1.1" xmlns="http://www.w3.org/2000/svg" xmlns:xlink="http://www.w3.org/1999/xlink">
    <defs>
        <linearGradient x1="56.5737323%" y1="5.36763071%" x2="42.970114%" y2="94.4308663%" id="linearGradient-1">
            <stop stop-color="#0076CC" offset="0.0397795564%"></stop>
            <stop stop-color="#05B4E8" offset="100%"></stop>
        </linearGradient>
        <polygon id="path-2" points="44.442 50 44.442 34.6 42.242 34.6 38.194 36.03 38.81 38.186 41.912 37.306 41.912 50"></polygon>
    </defs>
    <g id="Page-1" stroke="none" stroke-width="1" fill="none" fill-rule="evenodd">
        <g id="Banks" transform="translate(-289.000000, -2407.000000)">
            <g id="Group-20" transform="translate(0.000000, 2133.000000)">
                <g id="Group-18" transform="translate(221.000000, 82.000000)">
                    <g id="Group-35" transform="translate(0.000000, 193.000000)">
                        <g id="Asset-2" transform="translate(69.000000, 0.000000)">
                            <path d="M42.5012214,21.2415619 C47.1968441,24.008544 52.2576115,26.1061144 57.5358536,27.4725445 C58.8994151,32.7516644 60.9957441,37.8130474 63.7624552,42.5092392 C60.9984402,47.2004059 58.90291,52.2557602 57.5374636,57.5279337 C52.258041,58.8938127 47.1965656,60.991341 42.5000106,63.7581332 C37.8033462,60.9893598 32.7408022,58.8911426 27.4606569,57.5252783 C26.0947922,52.250407 23.9981243,47.1931092 21.2329137,42.4998658 C24.0001212,37.80683 26.0973157,32.7485329 27.462524,27.4728077 C32.7426836,26.107686 37.8046075,24.009803 42.5012214,21.2415619 Z" id="Path-Copy-2" stroke="#FFFFFF" stroke-width="40"></path>
                            <g id="1" fill-rule="nonzero">
                                <use fill="#8A8A8A" xlink:href="#path-2"></use>
                                <use fill="url(#linearGradient-1)" xlink:href="#path-2"></use>
                            </g>
                            <path d="M84.9999191,42.4999595 C84.9985288,39.8266989 84.1983413,37.2148014 82.7019915,34.999291 C79.498181,30.4595585 77.3185613,25.2784993 76.3137635,19.8141703 C75.8682694,17.0264767 74.5486319,14.4522788 72.5451686,12.462826 L72.5451686,12.462826 C70.5537531,10.4618514 67.9795214,9.14291861 65.1918127,8.69526199 C59.7256929,7.68516357 54.5435879,5.50237773 50.0025368,2.29729511 C47.7864201,0.80135472 45.1738079,0.00138610884 42.4998158,0 L42.4998158,0 C39.8258237,0.00138610884 37.2132115,0.80135472 34.9970948,2.29729511 C30.4571132,5.50430343 25.2745701,7.68727379 19.8078189,8.69526199 C14.0955809,9.62691452 9.61777549,14.103495 8.68586803,19.8141703 C7.67760401,25.279426 5.4940363,30.4605513 2.28615043,34.999291 C-0.762050142,39.5354559 -0.762050142,45.4644632 2.28615043,50.0006281 C5.49211007,54.5404369 7.67549321,59.7211243 8.68586803,65.1857487 C9.61777549,70.8964241 14.0955809,75.3730045 19.8078189,76.3046571 C25.2745701,77.3126453 30.4571132,79.4956156 34.9970948,82.7026239 C37.2132115,84.1985643 39.8258237,84.9985329 42.4998158,84.9999191 L42.4998158,84.9999191 C45.1738079,84.9985329 47.7864201,84.1985643 50.0025368,82.7026239 C54.5435879,79.4975413 59.7256929,77.3147555 65.1918127,76.3046571 C67.98102,75.8615823 70.5565985,74.5419594 72.5451686,72.5370931 L72.5451686,72.5370931 C74.5505836,70.549067 75.8705676,67.974193 76.3137635,65.1857487 C77.3241384,59.7211243 79.5075215,54.5404369 82.7134811,50.0006281 C84.2057674,47.7838214 85.0019235,45.1720238 84.9999191,42.4999595 L84.9999191,42.4999595 Z" id="Path" stroke="#039CDD" stroke-width="2"></path>
                        </g>
                    </g>
                </g>
            </g>
        </g>
    </g>
</svg>
