<?xml version="1.0" encoding="UTF-8"?>
<svg width="24px" height="26px" viewBox="0 0 24 26" version="1.1" xmlns="http://www.w3.org/2000/svg" xmlns:xlink="http://www.w3.org/1999/xlink">
    <g id="Page-1" stroke="none" stroke-width="1" fill="none" fill-rule="evenodd">
        <g id="Banks" transform="translate(-165.000000, -3530.000000)" fill-rule="nonzero">
            <g id="home-checkmark-svgrepo-com-copy" transform="translate(165.000000, 3530.000000)">
                <path d="M10.0493333,0.709110462 C11.1662667,-0.235344608 12.8016,-0.236491407 13.9198667,0.706403485 L22.9336,8.30627579 C23.6097333,8.87636789 24,9.71575757 24,10.6002191 L24,23.6663988 C24,24.9552134 22.9553333,26 21.6666667,26 L2.33333333,26 C1.04466667,26 0,24.9552134 0,23.6663988 L0,10.5985122 C0,9.71553088 0.388906667,8.87736801 1.06312,8.30728924 L10.0493333,0.709110462 Z M12.6308,2.23569902 C12.258,1.92139627 11.7129333,1.92178299 11.3405333,2.23660579 L2.35437333,9.83477123 C2.12964,10.0248064 2,10.3041851 2,10.5985122 L2,23.6663988 C2,23.8505533 2.14924,23.9997704 2.33333333,23.9997704 L21.6666667,23.9997704 C21.8508,23.9997704 22,23.8505533 22,23.6663988 L22,10.6002191 C22,10.3053986 21.8698667,10.0255931 21.6445333,9.83557132 L12.6308,2.23569902 Z" id="Shape" fill="#212121"></path>
                <path d="M17.6980742,11.2926181 C18.1006419,11.6829311 18.1006419,12.3157738 17.6980742,12.7060868 L11.5085084,18.7073652 C11.3152649,18.8947261 11.0530255,19 10.7796532,19 C10.5062809,19 10.2440415,18.8947261 10.050798,18.7073652 L7.30191554,16.0422033 C6.89936149,15.6518903 6.89936149,15.0190476 7.30191554,14.6287346 C7.70446958,14.2384216 8.35715444,14.2384216 8.75970849,14.6287346 L10.7796532,16.5872289 L16.2402262,11.2927514 C16.642794,10.9024384 17.2955064,10.9024384 17.6980742,11.2926181 Z" id="Path" fill="#039CDD"></path>
            </g>
        </g>
    </g>
</svg>
