<?xml version="1.0" encoding="UTF-8"?>
<svg width="70px" height="80px" viewBox="0 0 70 80" version="1.1" xmlns="http://www.w3.org/2000/svg" xmlns:xlink="http://www.w3.org/1999/xlink">
    <defs>
        <linearGradient x1="89.93663%" y1="26.0914232%" x2="7.29215241%" y2="73.8006361%" id="linearGradient-1">
            <stop stop-color="#0076CC" offset="0.0397795564%"></stop>
            <stop stop-color="#05B4E8" offset="100%"></stop>
        </linearGradient>
    </defs>
    <g id="Page-1" stroke="none" stroke-width="1" fill="none" fill-rule="evenodd">
        <g id="Home-Final" transform="translate(-165.000000, -1843.000000)">
            <g id="Group-6" transform="translate(165.000000, 1004.000000)">
                <g id="solar-energy-svgrepo-com-(1)" transform="translate(0.000000, 839.000000)">
                    <path d="M68.7226277,28.1275669 L1.27737226,28.1275669 C0.571751825,28.1275669 0,28.6994891 0,29.4049392 L0,67.2984428 C0,68.0038929 0.571751825,68.5758151 1.27737226,68.5758151 L33.7226277,68.5758151 L33.7226277,78.0832117 C33.7226277,78.7886618 34.2943796,79.3605839 35,79.3605839 C35.7056204,79.3605839 36.2773723,78.7886618 36.2773723,78.0832117 L36.2773723,68.5756448 L68.7226277,68.5756448 C69.4282482,68.5756448 70,68.0037226 70,67.2982725 L70,29.4049392 C70,28.6994891 69.4282482,28.1275669 68.7226277,28.1275669 Z M25.0364964,66.0209002 L25.0364964,55.9444769 L44.9635036,55.9444769 L44.9635036,66.0209002 L25.0364964,66.0209002 Z M25.0364964,53.3897324 L25.0364964,43.313309 L44.9635036,43.313309 L44.9635036,53.3897324 L25.0364964,53.3897324 Z M25.0364964,40.7587348 L25.0364964,30.6823114 L44.9635036,30.6823114 L44.9635036,40.7587348 L25.0364964,40.7587348 L25.0364964,40.7587348 Z M47.5182482,43.3134793 L67.4452555,43.3134793 L67.4452555,53.3899027 L47.5182482,53.3899027 L47.5182482,43.3134793 Z M67.4452555,40.7587348 L47.5182482,40.7587348 L47.5182482,30.6823114 L67.4452555,30.6823114 L67.4452555,40.7587348 Z M22.4817518,30.6823114 L22.4817518,40.7587348 L11.4963504,40.7587348 C10.7907299,40.7587348 10.2189781,41.3306569 10.2189781,42.0361071 C10.2189781,42.7415572 10.7907299,43.3134793 11.4963504,43.3134793 L22.4817518,43.3134793 L22.4817518,53.3899027 L2.55474453,53.3899027 L2.55474453,43.3134793 L6.38686131,43.3134793 C7.09248175,43.3134793 7.66423358,42.7415572 7.66423358,42.0361071 C7.66423358,41.3306569 7.09248175,40.7587348 6.38686131,40.7587348 L2.55474453,40.7587348 L2.55474453,30.6823114 L22.4817518,30.6823114 Z M2.55474453,55.9444769 L22.4817518,55.9444769 L22.4817518,66.0209002 L2.55474453,66.0209002 L2.55474453,55.9444769 Z M47.5182482,66.0209002 L47.5182482,55.9444769 L67.4452555,55.9444769 L67.4452555,66.0209002 L47.5182482,66.0209002 Z" id="Shape" fill="url(#linearGradient-1)"></path>
                    <path d="M23.146837,14.4077372 L25.7853771,14.4077372 C26.0078102,16.0196107 26.6432603,17.5010219 27.5830657,18.7405839 L25.7150365,20.6086131 C25.21618,21.1074696 25.21618,21.9161314 25.7150365,22.4149878 C25.9645499,22.6645012 26.2915572,22.7891727 26.6183942,22.7891727 C26.9452311,22.7891727 27.2722384,22.6645012 27.5217518,22.4149878 L29.3896107,20.547129 C30.6291727,21.4871046 32.1105839,22.1225547 33.7224574,22.3449878 L33.7224574,24.983528 C33.7224574,25.6889781 34.2942092,26.2609002 34.9998297,26.2609002 C35.7054501,26.2609002 36.2772019,25.6889781 36.2772019,24.983528 L36.2772019,22.3449878 C37.8890754,22.1225547 39.3704866,21.4871046 40.6100487,20.547129 L42.4779075,22.4149878 C42.7274209,22.6645012 43.0544282,22.7891727 43.3812652,22.7891727 C43.7081022,22.7891727 44.0351095,22.6645012 44.2846229,22.4149878 C44.7834793,21.9161314 44.7834793,21.1074696 44.2846229,20.6086131 L42.4165937,18.7405839 C43.3565693,17.5010219 43.9920195,16.0196107 44.2142822,14.4077372 L46.8528224,14.4077372 C47.5584428,14.4077372 48.1301946,13.8358151 48.1301946,13.130365 C48.1301946,12.4249148 47.5584428,11.8529927 46.8528224,11.8529927 L44.2142822,11.8529927 C43.9918491,10.2411192 43.356399,8.75970803 42.4165937,7.52014599 L44.2846229,5.65211679 C44.7834793,5.15326034 44.7834793,4.34459854 44.2846229,3.84574209 C43.7855961,3.34688564 42.9769343,3.34688564 42.4780779,3.84574209 L40.610219,5.71377129 C39.3706569,4.77379562 37.8892457,4.1383455 36.2773723,3.91591241 L36.2773723,1.27737226 C36.2773723,0.571922141 35.7056204,0 35,0 C34.2943796,0 33.7226277,0.571922141 33.7226277,1.27737226 L33.7226277,3.91591241 C32.1107543,4.1383455 30.6293431,4.77379562 29.389781,5.71377129 L27.5219221,3.84591241 C27.0228954,3.34705596 26.2142336,3.34705596 25.7153771,3.84591241 C25.2165207,4.34476886 25.2165207,5.15343066 25.7153771,5.6522871 L27.5834063,7.5203163 C26.6434307,8.75987835 26.0079805,10.2412895 25.7857178,11.853163 L23.1471776,11.853163 C22.4415572,11.853163 21.8698054,12.4250852 21.8698054,13.1305353 C21.8698054,13.8359854 22.4413869,14.4077372 23.146837,14.4077372 Z M35,6.38072993 C38.7217518,6.38072993 41.749635,9.40861314 41.749635,13.130365 C41.749635,16.8521168 38.7217518,19.88 35,19.88 C31.2782482,19.88 28.250365,16.8521168 28.250365,13.130365 C28.250365,9.40861314 31.2782482,6.38072993 35,6.38072993 Z" id="Shape" fill="#000000" fill-rule="nonzero"></path>
                </g>
            </g>
        </g>
    </g>
</svg>
