<?xml version="1.0" encoding="UTF-8"?>
<svg width="137px" height="100px" viewBox="0 0 137 100" version="1.1" xmlns="http://www.w3.org/2000/svg" xmlns:xlink="http://www.w3.org/1999/xlink">
    <g id="Page-1" stroke="none" stroke-width="1" fill="none" fill-rule="evenodd">
        <g id="Home-Final" transform="translate(-517.000000, -5403.000000)">
            <g id="Group-18-Copy-2" transform="translate(195.000000, 5373.000000)">
                <g id="Group-27" transform="translate(270.000000, 0.000000)">
                    <g id="Group-Copy" transform="translate(52.000000, 30.000000)">
                        <path d="M13.7839909,44.5997384 L13.880048,72.986988 C13.882394,73.6803012 14.2436418,74.322942 14.8347251,74.6853082 L54.5946805,99.0603213 L54.5946805,99.0603213 L54.5946805,69.8213811 C54.5946805,69.1617565 54.2694369,68.5445508 53.7253344,68.1716472 L16.9146333,42.9432369 C16.0035105,42.318794 14.7586885,42.551194 14.1342456,43.4623169 C13.9047789,43.797131 13.7826174,44.1938399 13.7839909,44.5997384 Z" id="Path-4" stroke="#979797" fill="#E3E7EA"></path>
                        <path d="M121.160681,37.2292993 L121.160681,62.6192403 C121.160681,63.3600933 120.751147,64.0402542 120.096374,64.3868597 L54.5946805,99.0603213 L54.5946805,99.0603213 L54.5946805,70.6750235 C54.5946805,69.9370887 55.001025,69.2591104 55.6518102,68.911222 L118.217811,35.4654978 C119.191932,34.944765 120.40375,35.3123085 120.924483,36.2864291 C121.079553,36.576514 121.160681,36.9003679 121.160681,37.2292993 Z" id="Path-5" stroke="#979797" fill="#E3E7EA"></path>
                        <path d="M3.07366151,39.1825437 L73.5871737,1.53778679 C74.2114432,1.20451062 74.9653575,1.2259404 75.5696878,1.59413914 L133.680915,36.9994147 C134.624197,37.5741257 134.922983,38.8047022 134.348272,39.7479843 C134.161965,40.0537729 133.896979,40.3039357 133.580984,40.4723513 L62.6920834,78.2538897 C62.0651213,78.5880406 61.3079528,78.5645092 60.7029503,78.1920709 L2.96711116,42.6500138 C2.02648489,42.0709663 1.73336737,40.8390273 2.31241486,39.898401 C2.49824146,39.5965374 2.76095782,39.3494855 3.07366151,39.1825437 Z" id="Path-6-Copy" fill="#000000"></path>
                        <path d="M3.07366151,38.1825437 L73.5871737,0.537786792 C74.2114432,0.204510619 74.9653575,0.2259404 75.5696878,0.594139139 L133.680915,35.9994147 C134.624197,36.5741257 134.922983,37.8047022 134.348272,38.7479843 C134.161965,39.0537729 133.896979,39.3039357 133.580984,39.4723513 L62.6920834,77.2538897 C62.0651213,77.5880406 61.3079528,77.5645092 60.7029503,77.1920709 L2.96711116,41.6500138 C2.02648489,41.0709663 1.73336737,39.8390273 2.31241486,38.898401 C2.49824146,38.5965374 2.76095782,38.3494855 3.07366151,38.1825437 Z" id="Path-6-Copy-2" fill="#394555"></path>
                    </g>
                </g>
            </g>
        </g>
    </g>
</svg>
