<?xml version="1.0" encoding="UTF-8"?>
<svg width="116px" height="101px" viewBox="0 0 116 101" version="1.1" xmlns="http://www.w3.org/2000/svg" xmlns:xlink="http://www.w3.org/1999/xlink">
    <g id="Page-1" stroke="none" stroke-width="1" fill="none" fill-rule="evenodd">
        <g id="Home-Final" transform="translate(-257.000000, -5403.000000)">
            <g id="Group-18-Copy-2" transform="translate(195.000000, 5373.000000)">
                <g id="Group-Copy-2" transform="translate(62.000000, 30.000000)">
                    <path d="M8.36532402,40.8964601 L8.47427659,73.0946517 C8.47662263,73.7879649 8.83787045,74.4306057 9.42895373,74.7929718 L49.1889091,99.167985 L49.1889091,99.167985 L49.1889091,68.8751219 L26.0069442,34 L8.36532402,40.8964601 Z" id="Path-4" stroke="#979797" fill="#E3E7EA"></path>
                    <path d="M108.75491,36 L108.75491,64.7568175 C108.75491,65.4818246 108.362551,66.1500601 107.729435,66.5033288 L49.1889091,99.167985 L49.1889091,99.167985 L49.1889091,69.5839925 L108.75491,36 Z" id="Path-5" stroke="#979797" fill="#E3E7EA"></path>
                    <path d="M87.7695717,3.46710047 L114.474146,42.0792729 C115.10245,42.9877377 114.875334,44.2335347 113.96687,44.8618383 C113.90203,44.9066823 113.834595,44.9476532 113.764918,44.9845366 L50.7528577,78.3401055 C49.8598973,78.8127959 48.7546307,78.5452598 48.1766869,77.7165285 L20.1889091,37.5839925 L20.1889091,37.5839925 L85.1817804,2.84094328 C86.0781676,2.36176419 87.1914059,2.63112987 87.7695717,3.46710047 Z" id="Path-5-Copy" fill="#000000"></path>
                    <polyline id="Path-5-Copy-2" fill="#5A5A5A" points="86.75491 2 65.5660009 10.7524304 0.140360039 44.9281831 7.13329309 42.3665297 20.1889091 37.5839925"></polyline>
                    <polygon id="Rectangle" fill="#5A5A5A" points="0.140360039 43.9892851 8.36532402 40.4904716 7.66692351 41.8886821 0.140360039 44.9281831"></polygon>
                    <path d="M88.7556609,1.49866494 L114.524879,40.0891086 C115.13828,41.0077015 114.890873,42.249628 113.97228,42.8630291 C113.915768,42.9007655 113.85737,42.9355973 113.797312,42.9673889 L50.7528577,76.3401055 C49.8598973,76.8127959 48.7546307,76.5452598 48.1766869,75.7165285 L21.4846892,37.4420514 C20.852852,36.5360406 21.0751136,35.2893685 21.9811244,34.6575313 C22.0490752,34.6101435 22.1199047,34.5670234 22.1932035,34.5284202 L86.1604381,0.839737084 C87.0666227,0.362490153 88.1869051,0.646930203 88.7556609,1.49866494 Z" id="Path-5-Copy-4" fill="#394555"></path>
                    <polyline id="Path-5-Copy-3" fill="#5C5C5C" points="87.75491 0 66.5660009 8.75243044 0 43.9892851 21.1889091 35.5839925"></polyline>
                </g>
            </g>
        </g>
    </g>
</svg>
