<?xml version="1.0" encoding="UTF-8"?>
<svg width="75px" height="75px" viewBox="0 0 75 75" version="1.1" xmlns="http://www.w3.org/2000/svg" xmlns:xlink="http://www.w3.org/1999/xlink">
    <defs>
        <linearGradient x1="59.9838142%" y1="5.36763071%" x2="39.3234052%" y2="94.4308663%" id="linearGradient-1">
            <stop stop-color="#0076CC" offset="0.0397795564%"></stop>
            <stop stop-color="#05B4E8" offset="100%"></stop>
        </linearGradient>
    </defs>
    <g id="Page-1" stroke="none" stroke-width="1" fill="none" fill-rule="evenodd">
        <g id="Home-Final" transform="translate(-555.000000, -1847.000000)">
            <g id="Group-6" transform="translate(165.000000, 1004.000000)">
                <g id="light-bulb-svgrepo-com" transform="translate(390.000000, 843.000000)">
                    <path d="M7.49750977,23.7524414 L1.24995117,23.7524414 C0.558691406,23.7524414 0,24.3124512 0,25.0023926 C0,25.692334 0.558691406,26.2523438 1.24995117,26.2523438 L7.49750977,26.2523438 C8.18876953,26.2523438 8.74746094,25.692334 8.74746094,25.0023926 C8.74746094,24.3124512 8.18876953,23.7524414 7.49750977,23.7524414 Z" id="Path" fill="#000000" fill-rule="nonzero"></path>
                    <path d="M60.4825195,6.9675293 C60.7649414,6.9675293 61.05,6.87128906 61.2837891,6.675 L66.0713379,2.65620117 C66.6001465,2.2125 66.6700195,1.425 66.2263184,0.895019531 C65.7837891,0.368701172 64.9962891,0.296337891 64.4651367,0.741210938 L59.6775879,4.76000977 C59.1487793,5.20371094 59.0800781,5.99121094 59.5237793,6.52119141 C59.7700195,6.81503906 60.1249512,6.9675293 60.4825195,6.9675293 Z" id="Path" fill="#000000" fill-rule="nonzero"></path>
                    <path d="M9.73374023,13.5662109 L3.8625,11.4300293 C3.21503906,11.19375 2.49624023,11.5300781 2.2612793,12.1775391 C2.02382813,12.8263184 2.35883789,13.5437988 3.0074707,13.7800781 L8.87871094,15.9162598 C9.01992188,15.9675293 9.16494141,15.9912598 9.30615234,15.9912598 C9.81621094,15.9912598 10.2960938,15.6763184 10.4811035,15.16875 C10.7175293,14.5199707 10.3836914,13.8024902 9.73374023,13.5662109 Z" id="Path" fill="#000000" fill-rule="nonzero"></path>
                    <path d="M72.7375488,12.1737305 C72.5025879,11.5262695 71.7837891,11.1899414 71.1363281,11.4275391 L65.2637695,13.5650391 C64.6138184,13.8013184 64.2799805,14.5187988 64.5162598,15.1675781 C64.7012695,15.6751465 65.1799805,15.9900879 65.6912109,15.9900879 C65.8324219,15.9900879 65.9774414,15.9663574 66.1174805,15.9137695 L71.9912109,13.7762695 C72.6399902,13.5399902 72.975,12.8225098 72.7375488,12.1737305 Z" id="Path" fill="#000000" fill-rule="nonzero"></path>
                    <path d="M8.92631836,2.65869141 L13.711377,6.675 C13.945166,6.87246094 14.2300781,6.9675293 14.5126465,6.9675293 C14.8713867,6.9675293 15.2251465,6.81621094 15.4713867,6.52133789 C15.9150879,5.9925293 15.8463867,5.20385742 15.3175781,4.76015625 L10.5325195,0.743701172 C10.0025391,0.3 9.2137207,0.371191406 8.77250977,0.897509766 C8.32749023,1.42749023 8.39750977,2.21499023 8.92631836,2.65869141 Z" id="Path" fill="#000000" fill-rule="nonzero"></path>
                    <path d="M37.5,49.9999512 C38.1912598,49.9999512 38.7499512,49.4399414 38.7499512,48.75 L38.7499512,40.5250488 L42.8986816,36.4587891 C43.0875,36.2674805 47.4999034,31.7225098 47.4999034,25.6262695 C47.5023926,19.5200684 42.9874512,14.9674805 42.7974609,14.7799805 L38.3837402,10.3662598 C37.8949219,9.87744141 37.1049316,9.87744141 36.6162598,10.3662598 L32.2725586,14.7087891 C32.0787598,14.9025879 27.5012695,19.5200684 27.5000966,25.6237793 C27.4976074,31.7387695 32.0976563,36.2800781 32.2713867,36.45 L36.2501953,40.5099609 L36.2501953,48.75 C36.2500488,49.4399414 36.8087402,49.9999512 37.5,49.9999512 Z M34.0350586,34.6787109 C33.9950684,34.6387207 29.9975098,30.69375 29.9999988,25.6249512 C30.0013184,20.5773926 33.9962402,16.5212402 34.0387207,16.4799316 L37.4999988,13.0174805 L41.0312988,16.5499512 C41.0712891,16.5887695 45.0024902,20.5787109 44.9999988,25.6249512 C44.9999988,30.6786621 41.15625,34.6649414 41.1336914,34.6875 L38.7499512,37.0249512 L38.7499512,18.75 C38.7499512,18.0600586 38.1912598,17.5000488 37.4999988,17.5000488 C36.8087402,17.5000488 36.2500488,18.0600586 36.2500488,18.75 L36.2500488,36.9388184 L34.0350586,34.6787109 Z" id="Shape" fill="url(#linearGradient-1)"></path>
                    <path d="M73.7500488,23.7499512 L67.5,23.7499512 C66.8087402,23.7499512 66.2500488,24.3099609 66.2500488,24.9999023 C66.2500488,25.6898437 66.8087402,26.2498535 67.5,26.2498535 L73.7500488,26.2498535 C74.4413086,26.2498535 75,25.6898437 75,24.9999023 C75,24.3099609 74.4413086,23.7499512 73.7500488,23.7499512 Z" id="Path" fill="#000000" fill-rule="nonzero"></path>
                    <path d="M37.5,0 C23.7149414,0 12.4999512,11.2149902 12.4999512,25.0000488 C12.4999512,35.55 16.6374023,43.4200195 25.5237305,49.7674805 C25.5662109,49.7975098 25.6287598,49.8350098 25.6750488,49.8599121 C25.7400879,49.8949219 27.0862793,50.6460937 27.4226074,52.7537109 C26.011377,53.2924805 25.0000488,54.6512695 25.0000488,56.25 C25.0000488,57.2100586 25.3625977,58.0863281 25.9574707,58.7500488 C25.3624512,59.4137695 25.0000488,60.2900391 25.0000488,61.2500977 C25.0000488,62.2101562 25.3625977,63.0862793 25.9574707,63.7501465 C25.3624512,64.4138672 25.0000488,65.2901367 25.0000488,66.2501953 C25.0000488,68.3176758 26.6825684,70.0001953 28.7500488,70.0001953 C29.4413086,70.0001953 30,69.4401855 30,68.7502441 C30,68.0603027 29.4413086,67.500293 28.7500488,67.500293 C28.0601074,67.500293 27.5000977,66.9391113 27.5000977,66.2503418 C27.5000977,65.5615723 28.0601074,65.0003906 28.7500488,65.0003906 L41.25,65.0003906 C41.9412598,65.0003906 42.4999512,64.4403809 42.4999512,63.7504395 C42.4999512,63.060498 41.9412598,62.5004883 41.25,62.5004883 L28.7500488,62.5004883 C28.0601074,62.5004883 27.5000977,61.9393066 27.5000977,61.2505371 C27.5000977,60.5617676 28.0601074,60.0005859 28.7500488,60.0005859 L41.25,60.0005859 C41.9412598,60.0005859 42.4999512,59.4405762 42.4999512,58.7506348 C42.4999512,58.0606934 41.9412598,57.5006836 41.25,57.5006836 L28.7500488,57.5006836 C28.0601074,57.5006836 27.5000977,56.939502 27.5000977,56.2507324 C27.5000977,55.5619629 28.0601074,55.0007812 28.7500488,55.0007812 L41.25,55.0007812 C41.9412598,55.0007812 42.4999512,54.4407715 42.4999512,53.7508301 C42.4999512,53.0608887 41.9412598,52.5008789 41.25,52.5008789 L29.9150391,52.5008789 C29.4725098,49.3533691 27.4325684,47.9895996 26.9213379,47.6945801 C18.6763184,41.7858398 15.0001465,34.7846191 15.0001465,25.0007812 C15.0001465,12.5945801 25.0939453,2.50078125 37.5001465,2.50078125 C49.9063477,2.50078125 60.0001465,12.5945801 60.0001465,25.0007812 C60.0001465,34.7844727 56.3238281,41.7858398 48.0789551,47.6945801 C47.5040039,48.0257812 45.0001465,49.7071289 45.0001465,53.7508301 C45.0001465,54.4407715 45.5588379,55.0007812 46.2500977,55.0007812 C46.9400391,55.0007812 47.5000488,55.5619629 47.5000488,56.2507324 C47.5000488,56.939502 46.9400391,57.5006836 46.2500977,57.5006836 C45.5588379,57.5006836 45.0001465,58.0606934 45.0001465,58.7506348 C45.0001465,59.4405762 45.5588379,60.0005859 46.2500977,60.0005859 C46.9400391,60.0005859 47.5000488,60.5617676 47.5000488,61.2505371 C47.5000488,61.9393066 46.9400391,62.5004883 46.2500977,62.5004883 C45.5588379,62.5004883 45.0001465,63.060498 45.0001465,63.7504395 C45.0001465,64.4403809 45.5588379,65.0003906 46.2500977,65.0003906 C46.9400391,65.0003906 47.5000488,65.5615723 47.5000488,66.2503418 C47.5000488,66.9628418 46.9625977,67.500293 46.2500977,67.500293 L33.75,67.500293 C33.0587402,67.500293 32.5000488,68.0603027 32.5000488,68.7502441 L32.5000488,71.25 C32.5000488,73.3174805 34.1825684,75 36.2500488,75 L38.7500977,75 C40.8175781,75 42.5000977,73.3174805 42.5000977,71.25 L42.5000977,70.0000488 L46.2500977,70.0000488 C48.3539063,70.0000488 50.0000977,68.3525391 50.0000977,66.2500488 C50.0000977,65.2899902 49.6375488,64.4138672 49.0425293,63.75 C49.6375488,63.0862793 50.0000977,62.2100098 50.0000977,61.2499512 C50.0000977,60.2898926 49.6375488,59.4137695 49.0425293,58.7499023 C49.6375488,58.0861816 50.0000977,57.2099121 50.0000977,56.2498535 C50.0000977,54.651123 48.9887695,53.292334 47.5775391,52.7535645 C47.9137207,50.6460937 49.2575684,49.8960937 49.3088379,49.8673828 C49.3675781,49.8386719 49.4238281,49.804834 49.4762695,49.767334 C58.3612793,43.419873 62.5000488,35.5498535 62.5000488,24.9999023 C62.5000488,11.2149902 51.2850586,0 37.5,0 Z M40.0000488,71.25 C40.0000488,71.9387695 39.4400391,72.4999512 38.7500977,72.4999512 L36.2500488,72.4999512 C35.5601074,72.4999512 35.0000977,71.9387695 35.0000977,71.25 L35.0000977,70.0000488 L40.0000488,70.0000488 L40.0000488,71.25 Z" id="Shape" fill="#000000" fill-rule="nonzero"></path>
                </g>
            </g>
        </g>
    </g>
</svg>
