<?xml version="1.0" encoding="UTF-8"?>
<svg width="80px" height="50px" viewBox="0 0 80 50" version="1.1" xmlns="http://www.w3.org/2000/svg" xmlns:xlink="http://www.w3.org/1999/xlink">
    <g id="Page-1" stroke="none" stroke-width="1" fill="none" fill-rule="evenodd">
        <g id="Home-Final" transform="translate(-1085.000000, -5433.000000)" fill="#B8BFC5">
            <g id="Group-18-Copy-2" transform="translate(195.000000, 5373.000000)">
                <g id="Group-29-Copy" transform="translate(810.000000, 0.000000)">
                    <g id="Group-30" transform="translate(80.000000, 60.000000)">
                        <path d="M80,21.9557102 C79.9726285,37.5921204 71.252171,47.6072688 59.1597541,49.2535145 C54.7160949,49.8589629 50.5456244,48.9202255 46.4614794,47.249528 C42.2057362,45.509196 38.799036,42.4814222 35.1754693,39.7768378 C30.4859929,36.2765059 25.9707467,32.5561077 21.4291817,28.8654769 C19.4573803,27.2628192 19.2584105,23.932587 20.7801611,21.9402949 C22.4550869,19.7476041 25.6570271,19.0943151 27.8372731,20.6539163 C30.2722846,22.3953114 32.3983139,24.5215571 34.62646,26.5175701 C39.1864482,30.6031511 43.6974834,34.7456091 49.3102219,37.389064 C52.0563212,38.6823529 54.9113801,39.3930505 57.9454066,39.4095289 C61.2915736,39.4281335 63.971876,37.8972367 66.211076,35.5961073 C70.0478246,31.6524533 71.3327064,26.8652113 69.9709738,21.5325873 C68.6192424,16.2398304 65.2467566,12.5518574 59.976162,11.2883359 C57.1942692,10.6217579 55.0061276,9.35345241 52.9127336,7.58707387 C51.29992,6.22574511 49.5981491,4.97179176 47.9437519,3.66096134 C47.6516137,3.42920057 47.1368188,3.2979049 47.2631488,2.7993003 C47.374214,2.35757278 47.865322,2.32727378 48.2295737,2.21245651 C56.164153,-0.282161155 63.6255211,0.715048039 70.3178551,5.73032988 C76.7459487,10.5473393 79.945257,17.1519898 80,21.9557102" id="Fill-6"></path>
                        <path d="M0,24.8646123 C0.165862614,10.3634609 11.2133658,-0.466425147 24.4692112,0.0154717324 C29.6967796,0.205778354 34.5073219,1.97397741 38.6917987,5.03647473 C45.3342015,9.89755619 51.831277,14.961738 58.1551183,20.257273 C60.9563535,22.6027887 60.5777655,25.8396005 59.002334,27.751729 C57.1894293,29.9511831 53.9764335,30.2534348 51.5764278,28.3588977 C48.5650999,25.9813976 45.8328424,23.2776576 42.9563108,20.7429013 C39.14463,17.3840161 35.2286926,14.1791886 30.5950704,12.0090535 C27.9707553,10.77979 25.2327058,10.1459676 22.3340591,10.0441509 C17.0117122,9.85704274 11.9173604,14.51609 10.3040174,19.4315448 C7.42643272,28.2011085 12.6139834,37.1295275 21.5947858,38.7505988 C22.9485406,38.9947456 24.038495,39.5299497 25.0857989,40.4105843 C27.2098934,42.1958416 29.4313994,43.862224 31.5991974,45.5941741 C31.9583031,45.8814998 32.5332935,46.1043238 32.406922,46.6944343 C32.2868691,47.2552258 31.6960822,47.3197275 31.2511492,47.442867 C21.7543298,50.0757085 13.4227611,48.0004601 6.5176109,40.8551661 C2.01141329,36.1923873 0.0236946591,30.4117571 0,24.8646123" id="Fill-9"></path>
                    </g>
                </g>
            </g>
        </g>
    </g>
</svg>
