<?xml version="1.0" encoding="UTF-8"?>
<svg width="75px" height="75px" viewBox="0 0 75 75" version="1.1" xmlns="http://www.w3.org/2000/svg" xmlns:xlink="http://www.w3.org/1999/xlink">
    <defs>
        <linearGradient x1="89.93663%" y1="43.79844%" x2="7.29215241%" y2="56.1735617%" id="linearGradient-1">
            <stop stop-color="#0076CC" offset="0.0397795564%"></stop>
            <stop stop-color="#05B4E8" offset="100%"></stop>
        </linearGradient>
    </defs>
    <g id="Page-1" stroke="none" stroke-width="1" fill="none" fill-rule="evenodd">
        <g id="Home-Final" transform="translate(-945.000000, -1848.000000)">
            <g id="Group-6" transform="translate(165.000000, 1004.000000)">
                <g id="telemarketer-support-svgrepo-com" transform="translate(780.000000, 844.000000)">
                    <path d="M56.6008773,19.9420325 C55.9572268,19.2411068 55.0422881,18.8388618 54.0905818,18.8388618 L52.340831,18.8388618 L52.5489847,15.6466835 L52.8073824,11.6834137 C53.0068935,8.6239498 51.96217,5.70686835 49.8659846,3.46947244 C47.7697992,1.23207653 44.9268387,0 41.861076,0 L33.1385425,0 C30.0726333,0 27.2298192,1.23207653 25.1336339,3.46947244 C23.0374485,5.70686835 21.9928714,8.62380332 22.1922361,11.6834137 L22.5799791,17.627879 L22.658934,18.8388618 L20.759623,18.8388618 C19.8079168,18.8388618 18.892978,19.2409603 18.2493275,19.9420325 C17.605677,20.6431047 17.2831193,21.5890981 17.3644179,22.5374352 L17.9335081,29.1683243 C18.0509882,30.5389746 18.947763,31.6463933 20.1695857,32.0826226 L20.1695857,38.2610227 C20.1695857,39.0861669 20.8384314,39.7550126 21.6635755,39.7550126 C22.4887196,39.7550126 23.1575653,39.0861669 23.1575653,38.2610227 L23.1575653,32.2849169 L23.5589314,32.2849169 C24.0985783,36.7743571 26.7370472,40.7033497 30.7319576,42.9007555 C32.8512875,44.0663283 35.1752554,44.6490415 37.5001022,44.6490415 C39.8245096,44.6490415 42.1496494,44.0661818 44.2682468,42.9007555 C46.297782,41.7845478 47.9760486,40.2205386 49.2085646,38.3641475 C50.2364425,38.2585325 51.1904925,37.9740607 52.0655876,37.5061909 C56.3830557,35.1973109 56.8982398,29.4066537 56.9180151,29.1612931 C56.9180151,29.1611466 56.9180151,29.1608536 56.9180151,29.1607071 L57.4857869,22.5372887 C57.5670855,21.5890981 57.2445278,20.6431047 56.6008773,19.9420325 Z M21.3284202,29.2967907 C21.1089872,29.2967907 20.9292514,29.1318498 20.9105015,28.9131492 L20.3419973,22.2821136 C20.3289602,22.1302098 20.3939991,22.0245948 20.4509813,21.9624856 C20.5078171,21.9005229 20.6075727,21.826695 20.759916,21.826695 L22.8540506,21.826695 L23.3412562,29.2967907 L21.3284202,29.2967907 L21.3284202,29.2967907 Z M25.1745029,11.488883 C25.0293373,9.26276632 25.789296,7.14036032 27.314487,5.51233766 C28.8395314,3.88446148 30.9081778,2.98797969 33.1389819,2.98797969 L41.8615154,2.98797969 C42.0550207,2.98797969 42.2467682,2.99720817 42.4376368,3.01053821 L40.1231904,9.18220015 C39.7490703,9.80387805 36.3543047,14.9111876 25.4641017,15.9291046 L25.1745029,11.488883 Z M48.5331271,31.3143142 C48.4392309,32.7530796 48.072728,34.1285639 47.4725833,35.3821736 C46.1907022,35.2411096 44.7284994,34.767234 43.0944709,33.963623 C43.1485235,33.7110847 43.1775273,33.4494643 43.1775273,33.1811057 C43.1775273,31.1215413 41.5020438,29.4460579 39.4424794,29.4460579 C37.382915,29.4460579 35.7074316,31.1215413 35.7074316,33.1811057 C35.7074316,35.2406701 37.382915,36.9161536 39.4424794,36.9161536 C40.1245087,36.9161536 40.7639112,36.7314373 41.3148373,36.4109304 C42.8483778,37.2007719 44.2927096,37.7584363 45.6429987,38.0802615 C44.8431963,38.9477395 43.8979354,39.6943682 42.828456,40.2826478 C39.4921375,42.1177988 35.5083599,42.1177988 32.1720414,40.2826478 C28.8470021,38.4537956 26.7143422,35.1012174 26.4673703,31.3144607 L25.6584859,18.9101995 C34.0734031,18.1383756 38.6628918,15.0625055 40.9243111,12.8544064 C41.5289969,13.5478614 42.3929592,14.1865315 43.5090205,14.7629458 C44.7150229,15.3859421 46.722146,16.0410183 49.4852728,16.7139656 L48.5331271,31.3143142 Z M40.1894011,33.1812522 C40.1894011,33.5931651 39.8542458,33.9283204 39.4423329,33.9283204 C39.0304201,33.9283204 38.6952648,33.5931651 38.6952648,33.1812522 C38.6952648,32.7693393 39.0304201,32.434184 39.4423329,32.434184 C39.8542458,32.434184 40.1894011,32.7693393 40.1894011,33.1812522 Z M49.8257015,11.4887365 L49.6825867,13.6851169 C46.9138935,12.9891716 45.5495419,12.4540657 44.8804032,12.1083636 C43.2512087,11.2666668 42.883534,10.5704286 42.8737196,10.3567085 C42.8748914,10.3537788 42.8756239,10.3507026 42.8766492,10.347773 C42.8773817,10.3457222 42.878407,10.3436714 42.8791395,10.3416206 L45.3397769,3.78001842 C46.2079873,4.20086682 47.0017839,4.7825546 47.685571,5.51233766 C49.2110548,7.14021383 49.9710136,9.26276632 49.8257015,11.4887365 Z M50.9313624,34.7099587 C51.1699848,33.9255372 51.3416639,33.114895 51.4414195,32.2849169 L52.9742276,32.2849169 C52.5240824,33.2073263 51.8717894,34.1152339 50.9313624,34.7099587 Z M53.9401428,28.9131492 C53.9213929,29.1318498 53.7418035,29.2967907 53.5222241,29.2967907 L51.6589482,29.2967907 L52.1461538,21.826695 L54.0907283,21.826695 C54.2430716,21.826695 54.3429737,21.9005229 54.399663,21.9624856 C54.4566452,22.0244484 54.5215376,22.1300633 54.508647,22.2819672 L53.9401428,28.9131492 Z" id="Shape" fill="#000000"></path>
                    <path d="M74.9761174,72.3711297 L73.5314927,64.3971292 C72.7218759,59.9283432 70.5974191,55.8717631 67.3875162,52.6659618 C64.2151132,49.4975139 60.2171267,47.3856547 55.8255378,46.5587528 C54.472026,46.3038707 53.0876062,46.1745254 51.71095,46.1745254 L47.3605231,46.1745254 C46.964284,46.1745254 46.5843046,46.3321421 46.3040808,46.6122194 L37.5001022,55.416198 L28.6961236,46.6120729 C28.4160463,46.3319956 28.0359204,46.1745254 27.6396814,46.1745254 L23.2891079,46.1745254 C21.9130377,46.1745254 20.5287643,46.3037242 19.1748131,46.5586063 C19.1746666,46.5586063 19.1746666,46.5586063 19.1745202,46.5586063 C14.7830777,47.3855082 10.7849447,49.4973674 7.6125417,52.6658153 C4.40278531,55.8716166 2.27818204,59.9281967 1.46856523,64.3969827 L0.0239404797,72.3711297 C-0.0550143713,72.8069195 0.0634911472,73.2551604 0.347377049,73.5950031 C0.631262951,73.9348459 1.05123245,74.1312809 1.49405344,74.1312809 L73.505858,74.1312809 C73.948679,74.1312809 74.3686485,73.9348459 74.6525344,73.5950031 C74.9365668,73.2551604 75.0549258,72.8070659 74.9761174,72.3711297 Z M38.556691,58.5853783 L47.9794178,49.1625051 L51.711243,49.1625051 C51.9047483,49.1625051 52.0982536,49.1654347 52.2917589,49.1712941 L37.5001022,63.9629508 L35.3396104,61.8024589 L38.556691,58.5853783 Z M23.2891079,49.1625051 L27.0207866,49.1625051 L35.3872177,57.5290826 L33.2267258,59.6895744 L22.7087385,49.1714406 C22.9022438,49.1652883 23.0957491,49.1625051 23.2891079,49.1625051 Z M3.28320845,71.1434477 L4.40893763,64.9298913 C5.77050598,57.4142391 11.5722959,51.3659167 18.96622,49.6548376 L36.4436599,67.1322776 C36.4801344,67.1687521 36.5180738,67.2028829 36.557185,67.2348164 C37.1048885,67.6815924 37.8954624,67.6815924 38.4431659,67.2348164 C38.4822771,67.2028829 38.52007,67.1687521 38.556691,67.1322776 L56.0341309,49.6548376 C63.4279085,51.3659167 69.2296984,57.4142391 70.5914133,64.9298913 L71.7171424,71.1434477 L3.28320845,71.1434477 Z" id="Shape" fill="url(#linearGradient-1)"></path>
                    <path d="M21.663429,41.2490024 C20.8382849,41.2490024 20.1694392,41.9178482 20.1694392,42.7429923 L20.1694392,43.3406468 C20.1694392,44.1657909 20.8382849,44.8346367 21.663429,44.8346367 C22.4885731,44.8346367 23.1574189,44.1657909 23.1574189,43.3406468 L23.1574189,42.7429923 C23.1575653,41.9178482 22.4887196,41.2490024 21.663429,41.2490024 Z" id="Path" fill="#000000" fill-rule="nonzero"></path>
                </g>
            </g>
        </g>
    </g>
</svg>
