<?xml version="1.0" encoding="UTF-8"?>
<svg width="30px" height="30px" viewBox="0 0 30 30" version="1.1" xmlns="http://www.w3.org/2000/svg" xmlns:xlink="http://www.w3.org/1999/xlink">
    <defs>
        <linearGradient x1="89.93663%" y1="5.36763071%" x2="7.29215241%" y2="94.4308663%" id="linearGradient-1">
            <stop stop-color="#0076CC" offset="0.0397795564%"></stop>
            <stop stop-color="#05B4E8" offset="100%"></stop>
        </linearGradient>
    </defs>
    <g id="Page-1" stroke="none" stroke-width="1" fill="none" fill-rule="evenodd">
        <g id="Home-Final" transform="translate(-655.000000, -5517.000000)" fill="url(#linearGradient-1)">
            <g id="Group-18-Copy-2" transform="translate(195.000000, 5373.000000)">
                <g id="Group-27" transform="translate(270.000000, 0.000000)">
                    <g id="checkmark-circle-svgrepo-com" transform="translate(190.000000, 144.000000)">
                        <path d="M15,0 C23.2842713,0 30,6.71572875 30,15 C30,23.2842713 23.2842713,30 15,30 C6.71572875,30 0,23.2842713 0,15 C0,6.71572875 6.71572875,0 15,0 Z M21.4754126,10.2120874 C21.1337038,9.8703786 20.5938386,9.84759803 20.2257089,10.1437456 L20.1495874,10.2120874 L12.5625,17.7991747 L9.85041263,15.0870874 C9.48429607,14.7209709 8.89070393,14.7209709 8.52458738,15.0870874 C8.1828786,15.4287962 8.16009803,15.9686614 8.45624565,16.3367911 L8.52458738,16.4129126 L11.8995874,19.7879126 C12.2412961,20.1296214 12.7811614,20.152402 13.1492911,19.8562544 L13.2254126,19.7879126 L21.4754126,11.5379126 C21.8415291,11.1717961 21.8415291,10.5782039 21.4754126,10.2120874 Z" id="🎨-Color"></path>
                    </g>
                </g>
            </g>
        </g>
    </g>
</svg>
