<?xml version="1.0" encoding="UTF-8"?>
<svg width="135px" height="106px" viewBox="0 0 135 106" version="1.1" xmlns="http://www.w3.org/2000/svg" xmlns:xlink="http://www.w3.org/1999/xlink">
    <g id="Page-1" stroke="none" stroke-width="1" fill="none" fill-rule="evenodd">
        <g id="Home-Final" transform="translate(-788.000000, -5403.000000)">
            <g id="Group-18-Copy-2" transform="translate(195.000000, 5373.000000)">
                <g id="Group-29" transform="translate(540.000000, 0.000000)">
                    <g id="Group" transform="translate(53.000000, 30.000000)">
                        <path d="M12.8838221,46.6138515 L12.8838221,78.9825413 C12.8838221,79.6782673 13.2453738,80.3240038 13.8385107,80.6876289 L53.5946805,105.060321 L53.5946805,105.060321 L53.5946805,75.7338153 C53.5946805,75.1233405 53.315864,74.546294 52.8375866,74.1669126 L16.1267283,45.0469488 C15.2613518,44.3605106 14.0033575,44.5055689 13.3169194,45.3709454 C13.0364575,45.724517 12.8838221,46.1625514 12.8838221,46.6138515 Z" id="Path-4" stroke="#979797" fill="#E3E7EA"></path>
                        <path d="M120.160681,43.2292993 L120.160681,68.6192403 C120.160681,69.3600933 119.751147,70.0402542 119.096374,70.3868597 L53.5946805,105.060321 L53.5946805,105.060321 L53.5946805,76.6750235 C53.5946805,75.9370887 54.001025,75.2591104 54.6518102,74.911222 L117.217811,41.4654978 C118.191932,40.944765 119.40375,41.3123085 119.924483,42.2864291 C120.079553,42.576514 120.160681,42.9003679 120.160681,43.2292993 Z" id="Path-5" stroke="#979797" fill="#E3E7EA"></path>
                        <path d="M2.61394814,39.4279689 L73.4097394,1.63251289 C74.1263047,1.24996311 75.0030714,1.33880594 75.6283316,1.85732299 L132.38047,48.9208537 C133.230716,49.625947 133.348385,50.8867981 132.643292,51.7370435 C132.477319,51.9371841 132.273913,52.1030418 132.044461,52.2253325 L60.8701814,90.1589691 C60.1507547,90.5424008 59.2706038,90.4507996 58.6455506,89.927442 L2.27190008,42.7257307 C1.42500114,42.0166214 1.31330056,40.7552275 2.02240985,39.9083286 C2.18698185,39.711778 2.38780568,39.5486987 2.61394814,39.4279689 Z" id="Path-6" fill="#000000"></path>
                        <path d="M2.61394814,38.4279689 L73.4097394,0.632512886 C74.1263047,0.24996311 75.0030714,0.338805937 75.6283316,0.857322989 L132.38047,47.9208537 C133.230716,48.625947 133.348385,49.8867981 132.643292,50.7370435 C132.477319,50.9371841 132.273913,51.1030418 132.044461,51.2253325 L60.8701814,89.1589691 C60.1507547,89.5424008 59.2706038,89.4507996 58.6455506,88.927442 L2.27190008,41.7257307 C1.42500114,41.0166214 1.31330056,39.7552275 2.02240985,38.9083286 C2.18698185,38.711778 2.38780568,38.5486987 2.61394814,38.4279689 Z" id="Path-6-Copy" fill="#394555"></path>
                    </g>
                </g>
            </g>
        </g>
    </g>
</svg>
