<?xml version="1.0" encoding="UTF-8"?>
<svg width="87px" height="87px" viewBox="0 0 87 87" version="1.1" xmlns="http://www.w3.org/2000/svg" xmlns:xlink="http://www.w3.org/1999/xlink">
    <defs>
        <linearGradient x1="89.93663%" y1="5.36763071%" x2="7.29215241%" y2="94.4308663%" id="linearGradient-1">
            <stop stop-color="#0076CC" offset="0.0397795564%"></stop>
            <stop stop-color="#05B4E8" offset="100%"></stop>
        </linearGradient>
        <linearGradient x1="72.376932%" y1="5.36763071%" x2="26.0703243%" y2="94.4308663%" id="linearGradient-2">
            <stop stop-color="#0076CC" offset="0.0397795564%"></stop>
            <stop stop-color="#05B4E8" offset="100%"></stop>
        </linearGradient>
        <linearGradient x1="89.93663%" y1="28.0932304%" x2="7.29215241%" y2="71.8078665%" id="linearGradient-3">
            <stop stop-color="#0076CC" offset="0.0397795564%"></stop>
            <stop stop-color="#05B4E8" offset="100%"></stop>
        </linearGradient>
    </defs>
    <g id="Page-1" stroke="none" stroke-width="1" fill="none" fill-rule="evenodd">
        <g id="About-Us" transform="translate(-536.000000, -2309.000000)">
            <g id="Group-Copy" transform="translate(170.000000, 2177.000000)">
                <g id="Group-35" transform="translate(0.000000, 133.000000)">
                    <g id="Group-19-Copy-3" transform="translate(280.000000, 0.000000)">
                        <g id="Group-18" transform="translate(87.000000, 0.000000)">
                            <path d="M42.5012214,21.2415619 C47.1968441,24.008544 52.2576115,26.1061144 57.5358536,27.4725445 C58.8994151,32.7516644 60.9957441,37.8130474 63.7624552,42.5092392 C60.9984402,47.2004059 58.90291,52.2557602 57.5374636,57.5279337 C52.258041,58.8938127 47.1965656,60.991341 42.5000106,63.7581332 C37.8033462,60.9893598 32.7408022,58.8911426 27.4606569,57.5252783 C26.0947922,52.250407 23.9981243,47.1931092 21.2329137,42.4998658 C24.0001212,37.80683 26.0973157,32.7485329 27.462524,27.4728077 C32.7426836,26.107686 37.8046075,24.009803 42.5012214,21.2415619 Z" id="Path-Copy-2" stroke="#FFFFFF" stroke-width="40"></path>
                            <g id="crown-svgrepo-com" transform="translate(18.000000, 25.000000)">
                                <circle id="Oval" fill="url(#linearGradient-1)" cx="24.4995693" cy="26.0534022" r="1.25610106"></circle>
                                <circle id="Oval" fill="url(#linearGradient-1)" cx="13.7461958" cy="26.0534022" r="1.25610106"></circle>
                                <circle id="Oval" fill="url(#linearGradient-1)" cx="35.254187" cy="26.0534022" r="1.25610106"></circle>
                                <path d="M24.4999521,8.88113695 C22.8569241,8.88104125 21.5698153,10.6005359 21.5698153,12.7956742 C21.5698153,14.9907168 22.8569241,16.7102115 24.4999521,16.7102115 C26.1430759,16.7102115 27.4301847,14.9907168 27.4301847,12.7956742 C27.4301847,10.6006316 26.1430759,8.88113695 24.4999521,8.88113695 Z M24.4998564,15.0206718 C23.9141545,15.0206718 23.2592593,14.0690975 23.2592593,12.7956742 C23.2592593,11.5221552 23.9141545,10.5706766 24.4998564,10.5706766 C25.0855584,10.5706766 25.7405493,11.5221552 25.7405493,12.7956742 C25.7405493,14.0691932 25.0855584,15.0206718 24.4998564,15.0206718 Z" id="Shape" fill="url(#linearGradient-2)"></path>
                                <path d="M45.6745143,2.8796057 C43.8410374,2.8796057 42.34922,4.3713274 42.34922,6.20499569 C42.34922,6.56924108 42.4089387,6.91970523 42.5177529,7.24796631 C41.4389894,8.18939611 40.3426165,8.96803522 39.2521772,9.56627428 C38.8430472,9.79060197 38.6933678,10.3041439 38.9176955,10.713274 C39.1422146,11.1222127 39.6557565,11.2719878 40.0646952,11.0476601 C41.2002105,10.424921 42.3351517,9.62953393 43.4479855,8.6774811 C43.7645708,8.9640157 44.1322615,9.18537659 44.5326826,9.33055795 L41.6794909,17.7774907 C41.6659967,17.777395 41.6525026,17.7772993 41.6389128,17.7772993 L15.0594315,17.7772993 C14.592784,17.7772993 14.2146617,18.1555173 14.2146617,18.6220691 C14.2146617,19.0886209 14.592784,19.4668389 15.0594315,19.4668389 L41.6388171,19.4668389 C41.7551919,19.4668389 41.8736721,19.487128 41.9838262,19.5249306 C42.4053019,19.6689635 42.7096373,20.0679491 42.7096373,20.5375634 C42.7096373,21.1280505 42.2292085,21.6082879 41.6388171,21.6082879 L7.36127859,21.6082879 C6.77098287,21.6082879 6.29055412,21.1280505 6.29055412,20.5375634 C6.29055412,20.0678534 6.59498517,19.6686764 7.01904488,19.524165 C7.12833764,19.4872237 7.24576514,19.4668389 7.36127859,19.4668389 L11.6804479,19.4668389 C12.1470954,19.4668389 12.5252177,19.0886209 12.5252177,18.6220691 C12.5252177,18.1555173 12.1470954,17.7772993 11.6804479,17.7772993 L7.36127859,17.7772993 C7.34778448,17.7772993 7.33429036,17.777395 7.32060484,17.7776821 L4.46741315,9.33055795 C4.86764284,9.18537659 5.23533352,8.9641114 5.55201455,8.6776725 C6.84429132,9.78390277 8.15982391,10.6741315 9.4721983,11.3296009 C11.6786295,12.4316203 13.8020863,12.823141 15.7851469,12.4928701 C18.7084889,12.006125 21.244521,9.97100201 23.3318021,6.44013781 C23.4926787,6.50062207 23.6582448,6.54751651 23.8271605,6.58206527 C23.8296488,6.58263949 23.832137,6.583118 23.8346253,6.58350081 C24.2734233,6.67126041 24.7279165,6.67221744 25.1668102,6.58330941 C25.1685329,6.5829266 25.1701598,6.58263949 25.1718825,6.58225668 C25.3413724,6.54761221 25.5075127,6.50062207 25.6688678,6.44004211 C27.1067088,8.87070533 28.7664848,10.6027371 30.6106804,11.5947938 C32.3734329,12.5430185 34.3050053,12.8257249 36.3512298,12.4351613 C36.8094555,12.3476888 37.1100584,11.9051584 37.0226816,11.4470284 C36.9352091,10.9888028 36.4924873,10.6882955 36.0345488,10.7755766 C32.5155517,11.4473155 29.4955498,9.65661786 27.0513925,5.45545028 C27.5344052,4.87807446 27.8256292,4.13522825 27.8256292,3.32538999 C27.8256292,1.4918174 26.3339076,0 24.5002393,0 C22.6667624,0 21.174945,1.4917217 21.174945,3.32538999 C21.174945,4.13561106 21.4665518,4.87874438 21.949756,5.4561202 C20.1132166,8.61374294 17.948129,10.4200402 15.5077041,10.8263949 C11.9962676,11.4112355 8.4983252,9.00267968 6.48272562,7.2476792 C6.59134845,6.91960953 6.65097138,6.56924108 6.65097138,6.2051871 C6.65097138,4.37161451 5.15924969,2.87979711 3.3255814,2.87979711 C1.4917217,2.8796057 0,4.3714231 0,6.20499569 C0,7.83644368 1.18135707,9.19638243 2.73337161,9.47650493 L5.72026031,18.3193607 C5.04172648,18.8227582 4.60091875,19.6294382 4.60091875,20.5372763 C4.60091875,21.7646665 5.40635468,22.8070629 6.51641305,23.1648005 L6.51641305,28.9412384 C5.40645038,29.298976 4.60091875,30.3412767 4.60091875,31.5686669 C4.60091875,33.0907264 5.83912336,34.328931 7.36118289,34.328931 L33.5428271,34.328931 C34.0094746,34.328931 34.3875969,33.950713 34.3875969,33.4841612 C34.3875969,33.0176093 34.0094746,32.6393913 33.5428271,32.6393913 L7.36127859,32.6393913 C6.77098287,32.6393913 6.29055412,32.159154 6.29055412,31.5686669 C6.29055412,30.9782754 6.77098287,30.4979424 7.36127859,30.4979424 L41.6388171,30.4979424 C42.2293042,30.4979424 42.7096373,30.9781797 42.7096373,31.5686669 C42.7096373,32.159154 42.2292085,32.6393913 41.6388171,32.6393913 L36.9220021,32.6393913 C36.4553546,32.6393913 36.0772323,33.0176093 36.0772323,33.4841612 C36.0772323,33.950713 36.4553546,34.328931 36.9220021,34.328931 L41.6388171,34.328931 C43.1608766,34.328931 44.399177,33.0907264 44.399177,31.5686669 C44.399177,30.3412767 43.5936453,29.2987846 42.4835869,28.941047 L42.4835869,23.1647048 C43.5936453,22.8069672 44.399177,21.7646665 44.399177,20.5370849 C44.399177,19.6291511 43.9582735,18.8223753 43.279644,18.3190736 L46.2665327,9.47631352 C47.8185472,9.19619102 49,7.83634798 49,6.20480429 C49,4.3714231 47.5081826,2.8796057 45.6745143,2.8796057 Z M24.4999521,1.68934826 C25.4019523,1.68934826 26.1358025,2.42319839 26.1358025,3.32519858 C26.1358025,4.27256197 25.3087377,5.02670112 24.3784094,4.95348837 C23.5362236,4.88726194 22.8641018,4.17178677 22.8641018,3.32519858 C22.8641018,2.42319839 23.597952,1.68934826 24.4999521,1.68934826 Z M3.80036367,7.76275242 C3.6482917,7.81328357 3.4884678,7.84094172 3.32538999,7.84094172 C2.4233898,7.84094172 1.68963537,7.10709159 1.68963537,6.2050914 C1.68963537,5.3030912 2.4234855,4.56924108 3.32538999,4.56924108 C4.22739018,4.56924108 4.96124031,5.3030912 4.96124031,6.2050914 C4.96124031,6.90496698 4.45305771,7.54560245 3.80036367,7.76275242 Z M40.7939516,28.8085941 L8.20604843,28.8085941 L8.20604843,23.2976361 L40.7939516,23.2976361 L40.7939516,28.8085941 L40.7939516,28.8085941 Z M45.6745143,7.84075031 C44.7853383,7.84075031 44.0387597,7.09321466 44.0387597,6.20489999 C44.0387597,5.3028998 44.7726098,4.56904967 45.6745143,4.56904967 C46.5764188,4.56904967 47.3103646,5.3028998 47.3103646,6.20489999 C47.3103646,7.10690018 46.5765145,7.84075031 45.6745143,7.84075031 Z" id="Shape" fill="url(#linearGradient-3)"></path>
                            </g>
                            <path d="M84.9999191,42.4999595 C84.9985288,39.8266989 84.1983413,37.2148014 82.7019915,34.999291 C79.498181,30.4595585 77.3185613,25.2784993 76.3137635,19.8141703 C75.8682694,17.0264767 74.5486319,14.4522788 72.5451686,12.462826 L72.5451686,12.462826 C70.5537531,10.4618514 67.9795214,9.14291861 65.1918127,8.69526199 C59.7256929,7.68516357 54.5435879,5.50237773 50.0025368,2.29729511 C47.7864201,0.80135472 45.1738079,0.00138610884 42.4998158,1.42108547e-14 L42.4998158,1.42108547e-14 C39.8258237,0.00138610884 37.2132115,0.80135472 34.9970948,2.29729511 C30.4571132,5.50430343 25.2745701,7.68727379 19.8078189,8.69526199 C14.0955809,9.62691452 9.61777549,14.103495 8.68586803,19.8141703 C7.67760401,25.279426 5.4940363,30.4605513 2.28615043,34.999291 C-0.762050142,39.5354559 -0.762050142,45.4644632 2.28615043,50.0006281 C5.49211007,54.5404369 7.67549321,59.7211243 8.68586803,65.1857487 C9.61777549,70.8964241 14.0955809,75.3730045 19.8078189,76.3046571 C25.2745701,77.3126453 30.4571132,79.4956156 34.9970948,82.7026239 C37.2132115,84.1985643 39.8258237,84.9985329 42.4998158,84.9999191 L42.4998158,84.9999191 C45.1738079,84.9985329 47.7864201,84.1985643 50.0025368,82.7026239 C54.5435879,79.4975413 59.7256929,77.3147555 65.1918127,76.3046571 C67.98102,75.8615823 70.5565985,74.5419594 72.5451686,72.5370931 L72.5451686,72.5370931 C74.5505836,70.549067 75.8705676,67.974193 76.3137635,65.1857487 C77.3241384,59.7211243 79.5075215,54.5404369 82.7134811,50.0006281 C84.2057674,47.7838214 85.0019235,45.1720238 84.9999191,42.4999595 L84.9999191,42.4999595 Z" id="Path" stroke="#039CDD" stroke-width="2"></path>
                        </g>
                    </g>
                </g>
            </g>
        </g>
    </g>
</svg>
