<?xml version="1.0" encoding="UTF-8"?>
<svg width="87px" height="87px" viewBox="0 0 87 87" version="1.1" xmlns="http://www.w3.org/2000/svg" xmlns:xlink="http://www.w3.org/1999/xlink">
    <defs>
        <linearGradient x1="64.7969366%" y1="5.36763071%" x2="34.1762984%" y2="94.4308663%" id="linearGradient-1">
            <stop stop-color="#0076CC" offset="0.0397795564%"></stop>
            <stop stop-color="#05B4E8" offset="100%"></stop>
        </linearGradient>
        <linearGradient x1="52.4960394%" y1="5.36763071%" x2="47.3307595%" y2="94.4308663%" id="linearGradient-2">
            <stop stop-color="#0076CC" offset="0.0397795564%"></stop>
            <stop stop-color="#05B4E8" offset="100%"></stop>
        </linearGradient>
        <linearGradient x1="50.8150333%" y1="5.36763071%" x2="49.1284113%" y2="94.4308663%" id="linearGradient-3">
            <stop stop-color="#0076CC" offset="0.0397795564%"></stop>
            <stop stop-color="#05B4E8" offset="100%"></stop>
        </linearGradient>
    </defs>
    <g id="Page-1" stroke="none" stroke-width="1" fill="none" fill-rule="evenodd">
        <g id="About-Us" transform="translate(-256.000000, -2309.000000)">
            <g id="Group-Copy" transform="translate(170.000000, 2177.000000)">
                <g id="Group-35" transform="translate(0.000000, 133.000000)">
                    <g id="Group-16" transform="translate(87.000000, 0.000000)">
                        <path d="M42.5012214,21.2415619 C47.1968441,24.008544 52.2576115,26.1061144 57.5358536,27.4725445 C58.8994151,32.7516644 60.9957441,37.8130474 63.7624552,42.5092392 C60.9984402,47.2004059 58.90291,52.2557602 57.5374636,57.5279337 C52.258041,58.8938127 47.1965656,60.991341 42.5000106,63.7581332 C37.8033462,60.9893598 32.7408022,58.8911426 27.4606569,57.5252783 C26.0947922,52.250407 23.9981243,47.1931092 21.2329137,42.4998658 C24.0001212,37.80683 26.0973157,32.7485329 27.462524,27.4728077 C32.7426836,26.107686 37.8046075,24.009803 42.5012214,21.2415619 Z" id="Path-Copy-2" stroke="#FFFFFF" stroke-width="40"></path>
                        <g id="rocket-launch-svgrepo-com" transform="translate(29.000000, 17.000000)">
                            <path d="M23.390206,25.5834772 C24.2191994,16.3995304 21.0081617,7.03735644 14.2712787,0.306655756 C13.8620288,-0.102218585 13.1379712,-0.102218585 12.7287213,0.306655756 C5.99183832,7.03735644 2.78080062,16.3890465 3.60979401,25.5834772 C1.28021764,28.089143 0,31.3182019 0,34.75694 C0,38.2271299 1.32219199,41.5295765 3.72522347,44.0457263 C4.31286436,44.6642797 5.81344734,44.3812129 5.57209483,43.0182984 C5.44617178,42.3053893 5.28876798,41.6134481 5.28876798,40.9319909 C5.28876798,39.2335898 5.80295375,37.6190603 6.75787019,36.2561459 C6.915274,36.3400175 7.09366498,36.3924373 7.28254955,36.3924373 L19.7174504,36.3924373 C19.906335,36.3924373 20.084726,36.3400175 20.2421298,36.2561459 C21.1970462,37.6190603 21.711232,39.2335898 21.711232,40.9319909 C21.711232,41.6134481 21.532841,42.2949054 21.4279052,43.0182984 C21.2075398,44.5279883 22.7815779,44.5804081 23.2747765,44.0457263 C25.6673144,41.5190925 27,38.2271299 27,34.75694 C26.9895064,31.3182019 25.7197824,28.0786591 23.390206,25.5834772 Z M13.4947532,2.65506223 C15.4465604,4.75185372 17.0415857,7.11074414 18.279829,9.61640997 L8.72017101,9.61640997 C9.94792072,7.10026019 11.542946,4.75185372 13.4947532,2.65506223 Z M3.2110377,39.4537529 C2.53944812,37.9964828 2.19315974,36.4029213 2.19315974,34.75694 C2.19315974,32.534341 2.83326856,30.4060976 4.0295375,28.581889 C4.04003109,28.6657607 5.1838321,33.0375709 5.62456277,34.1593544 C4.31286436,35.6690442 3.48387097,37.4932528 3.2110377,39.4537529 Z M18.9933929,34.2012902 L7.99611349,34.2012902 C4.91099883,26.9673596 4.9424796,18.8842284 7.74426739,11.7865892 L19.245239,11.7865892 C22.0470268,18.8842284 22.0785076,26.9673596 18.9933929,34.2012902 Z M21.3754372,34.1593544 C21.9840653,32.5972447 22.9599689,28.6447928 22.9704625,28.581889 C24.1667314,30.3956136 24.8068403,32.523857 24.8068403,34.75694 C24.8068403,36.4029213 24.4500583,37.9964828 23.7889623,39.4537529 C23.5056354,37.4932528 22.6766421,35.6690442 21.3754372,34.1593544 Z" id="Shape" fill="url(#linearGradient-1)"></path>
                            <path d="M8.67857143,38.5714286 C8.1407967,38.5714286 7.71428571,39.0674223 7.71428571,39.6689466 L7.71428571,45.1881962 C7.71428571,45.8002736 8.15006868,46.2857143 8.67857143,46.2857143 C9.20707418,46.2857143 9.64285714,45.7897205 9.64285714,45.1881962 L9.64285714,39.6689466 C9.64285714,39.0568693 9.20707418,38.5714286 8.67857143,38.5714286 Z" id="Path" fill="url(#linearGradient-2)"></path>
                            <path d="M13.509272,37.6071429 C13.2403846,37.6071429 12.9993132,37.7362265 12.8231456,37.940609 C12.8231456,37.940609 12.8231456,37.940609 12.8138736,37.951366 C12.7026099,38.0804496 12.6191621,38.2525612 12.5728022,38.4461867 C12.5542582,38.5429994 12.5357143,38.6398122 12.5357143,38.7473819 L12.5357143,49.9884178 C12.5357143,50.0744735 12.5449863,50.1605293 12.5635302,50.2465851 C12.665522,50.7414058 13.0456731,51.1071429 13.5,51.1071429 C13.9543269,51.1071429 14.334478,50.7414058 14.4364698,50.2465851 C14.4550137,50.1605293 14.4642857,50.0744735 14.4642857,49.9884178 L14.4642857,38.725868 C14.4642857,38.6182982 14.4550137,38.5214855 14.4271978,38.4246727 C14.325206,37.951366 13.9543269,37.6071429 13.509272,37.6071429 L13.509272,37.6071429 Z" id="Path" fill="url(#linearGradient-3)"></path>
                            <path d="M18.3213559,38.5714286 C17.7836217,38.5714286 17.3571429,39.0674223 17.3571429,39.6689466 L17.3571429,45.1881962 C17.3571429,45.8002736 17.792893,46.2857143 18.3213559,46.2857143 C18.8498189,46.2857143 19.285569,45.7897205 19.285569,45.1881962 L19.285569,39.6689466 C19.2948403,39.0568693 18.8590902,38.5714286 18.3213559,38.5714286 Z" id="Path" fill="url(#linearGradient-2)"></path>
                        </g>
                        <path d="M85.000547,42.4999595 C84.9991567,39.8266989 84.1989692,37.2148014 82.7026195,34.999291 C79.4988089,30.4595585 77.3191893,25.2784993 76.3143915,19.8141703 C75.8688973,17.0264767 74.5492599,14.4522788 72.5457966,12.462826 L72.5457966,12.462826 C70.5543811,10.4618514 67.9801494,9.14291861 65.1924406,8.69526199 C59.7263209,7.68516357 54.5442158,5.50237773 50.0031647,2.29729511 C47.7870481,0.80135472 45.1744358,0.00138610884 42.5004437,1.42108547e-14 L42.5004437,1.42108547e-14 C39.8264516,0.00138610884 37.2138394,0.80135472 34.9977227,2.29729511 C30.4577411,5.50430343 25.275198,7.68727379 19.8084469,8.69526199 C14.0962089,9.62691452 9.61840344,14.103495 8.68649597,19.8141703 C7.67823195,25.279426 5.49466425,30.4605513 2.28677837,34.999291 C-0.761422195,39.5354559 -0.761422195,45.4644632 2.28677837,50.0006281 C5.49273802,54.5404369 7.67612115,59.7211243 8.68649597,65.1857487 C9.61840344,70.8964241 14.0962089,75.3730045 19.8084469,76.3046571 C25.275198,77.3126453 30.4577411,79.4956156 34.9977227,82.7026239 C37.2138394,84.1985643 39.8264516,84.9985329 42.5004437,84.9999191 L42.5004437,84.9999191 C45.1744358,84.9985329 47.7870481,84.1985643 50.0031647,82.7026239 C54.5442158,79.4975413 59.7263209,77.3147555 65.1924406,76.3046571 C67.9816479,75.8615823 70.5572265,74.5419594 72.5457966,72.5370931 L72.5457966,72.5370931 C74.5512115,70.549067 75.8711955,67.974193 76.3143915,65.1857487 C77.3247663,59.7211243 79.5081494,54.5404369 82.7141091,50.0006281 C84.2063953,47.7838214 85.0025514,45.1720238 85.000547,42.4999595 L85.000547,42.4999595 Z" id="Path" stroke="#039CDD" stroke-width="2"></path>
                    </g>
                </g>
            </g>
        </g>
    </g>
</svg>
